<svg width="602" height="226" viewBox="0 0 602 226" fill="none" xmlns="http://www.w3.org/2000/svg">
<path d="M190.711 141.9V189.42H165.301V221.76H108.541V189.42H0.960938V174.57L65.9709 3.96001H124.381L71.2509 141.9H108.541V88.44H165.301V141.9H190.711Z" fill="#0068D7"/>
<path d="M210.083 111.21C210.083 77.99 217.893 51.15 233.513 30.69C249.353 10.23 271.683 0 300.503 0C329.323 0 351.543 10.23 367.163 30.69C383.003 51.15 390.923 77.99 390.923 111.21C390.923 144.87 383.003 172.37 367.163 193.71C351.323 215.05 329.103 225.72 300.503 225.72C271.903 225.72 249.683 215.05 233.843 193.71C218.003 172.37 210.083 144.87 210.083 111.21ZM332.843 111.54C332.843 91.08 330.203 76.12 324.923 66.66C319.643 56.98 311.503 52.14 300.503 52.14C289.503 52.14 281.363 56.98 276.083 66.66C270.803 76.12 268.163 91.08 268.163 111.54C268.163 152.9 278.943 173.58 300.503 173.58C322.063 173.58 332.843 152.9 332.843 111.54Z" fill="#0068D7"/>
<path d="M601.277 141.9V189.42H575.867V221.76H519.107V189.42H411.527V174.57L476.537 3.96001H534.947L481.817 141.9H519.107V88.44H575.867V141.9H601.277Z" fill="#0068D7"/>
</svg>
