<svg width="180" height="24" viewBox="0 0 180 24" fill="none" xmlns="http://www.w3.org/2000/svg">
<path d="M148.96 12.1992V3.49425L145.272 12.1686L148.96 12.1992ZM142.542 0H157.687L157.627 23.9693L148.96 23.9387V18.2069H142.632L140.263 23.9693H132.106L142.542 0ZM61.1196 23.9693H61.0596H59.7401H55.3016C51.8527 23.9693 47.7141 23.9693 45.015 23.9693C41.7161 23.7241 39.137 20.9042 39.137 17.4713L39.107 0H48.1639V17.931H53.0823V0H61.1196V23.9693ZM72.9657 0V17.931H82.1426V23.9693H69.9967C66.7877 23.6322 64.2386 20.8736 64.2386 17.5019V0.0306532H72.9657V0ZM78.064 0H99.3869V6.13027H92.6991V23.9693H84.6618V6.13027H78.064V0ZM101.906 0H109.943V23.9693H101.906V0ZM119.9 23.9387C116.391 23.9387 113.542 21.0268 113.542 17.4406L113.512 0H122.299V18.6054L130.486 0H138.404L128.207 23.9693L119.9 23.9387ZM179.94 6.06897H169.414V17.931H179.97V24H167.134C163.625 24 160.776 21.0881 160.776 17.5019V5.91571C161.076 2.60537 163.805 0.0306532 167.104 0.0306532H180V6.06897H179.94ZM0 6.49809C0 2.91188 2.84905 0 6.35788 0H35.958V24H27.9207V6.06897H22.7024V24H13.9753V6.06897H9.02699V24H0V6.49809Z" fill="#0069B4"/>
</svg>
