<svg width="174" height="41" viewBox="0 0 174 41" fill="none" xmlns="http://www.w3.org/2000/svg">
<path d="M27.4632 10.0767C18.2992 10.0767 1.4502 9.09506 1.4502 4.64858C1.4502 0.981675 21.3442 0.606323 27.4632 0.606323C33.5532 0.606323 53.8242 0.923929 53.8242 4.90844C53.8242 9.09506 35.4382 10.0767 27.4632 10.0767ZM48.8942 4.93731C48.8942 2.51196 32.4222 2.33872 27.4632 2.33872C22.5042 2.33872 6.3222 2.5697 6.3222 4.76407C6.3222 7.42041 20.0102 8.02675 27.4632 8.02675C33.9302 8.02675 48.8942 7.44928 48.8942 4.93731Z" fill="#008779"/>
<path d="M27.347 16.7753C33.843 16.7753 46.11 15.5626 46.11 11.9246C46.11 10.9141 44.863 10.4232 43.674 10.25C42.485 10.0767 40.194 9.99011 40.194 9.99011C41.325 10.3077 42.717 10.9429 42.717 11.4915C42.717 14.0901 32.625 14.7831 27.347 14.7831C22.069 14.7831 11.977 14.0901 11.977 11.4915C11.977 10.9429 13.369 10.3366 14.5 9.99011C14.5 9.99011 12.209 10.0767 11.02 10.25C9.83098 10.4232 8.58398 10.8852 8.58398 11.9246C8.58398 15.5626 20.851 16.7753 27.347 16.7753Z" fill="#008779"/>
<path d="M27.3474 21.7993C32.9734 21.7993 43.6164 20.7887 43.6164 17.7282C43.6164 16.862 42.5434 16.4866 41.5284 16.3134C40.5134 16.169 38.7734 16.3422 38.7734 16.3422C39.7594 16.6021 40.6874 16.8908 40.6874 17.3528C40.6874 19.5472 31.9294 20.1246 27.3764 20.1246C22.7944 20.1246 14.0654 19.5472 14.0654 17.3528C14.0654 16.8908 14.9934 16.631 15.9794 16.3422C15.9794 16.3422 14.2394 16.169 13.2244 16.3134C12.2094 16.4577 11.1074 16.862 11.1074 17.7282C11.1074 20.7887 21.7214 21.7993 27.3474 21.7993Z" fill="#008779"/>
<path d="M27.3476 27.0831C31.4366 27.0831 39.1796 26.1591 39.1796 23.3007C39.1796 22.4922 38.3966 22.1458 37.6426 22.0014C36.8886 21.857 35.3516 21.7704 35.3516 21.7704C36.0766 22.0303 37.0336 22.55 37.0336 22.9831C37.0336 25.0042 30.6826 25.5528 27.3476 25.5528C24.0126 25.5528 17.6616 25.0331 17.6616 22.9831C17.6616 22.55 18.6476 22.0014 19.3436 21.7704C19.3436 21.7704 17.8066 21.8859 17.0526 22.0303C16.2986 22.1746 15.5156 22.5211 15.5156 23.3296C15.5446 26.1591 23.2586 27.0831 27.3476 27.0831Z" fill="#008779"/>
<path d="M27.3468 31.5873C30.2468 31.5873 35.7278 30.8366 35.7278 28.5267C35.7278 27.8915 35.1768 27.5739 34.6548 27.4873C34.1328 27.3718 33.2338 27.0542 33.2338 27.0542C33.7268 27.2563 34.2198 27.9204 34.2198 28.2669C34.2198 29.9127 29.7248 30.3457 27.3468 30.3457C24.9978 30.3457 20.4738 29.9127 20.4738 28.2669C20.4738 27.9204 20.9668 27.2563 21.4598 27.0542C21.4598 27.0542 20.5608 27.3718 20.0388 27.4873C19.5168 27.6028 18.9658 27.8915 18.9658 28.5267C18.9948 30.8366 24.4468 31.5873 27.3468 31.5873Z" fill="#008779"/>
<path d="M27.3473 35.2542C29.4933 35.2542 33.5243 34.6479 33.5243 32.8577C33.5243 32.338 33.1183 32.107 32.7123 32.0204C32.3353 31.9338 31.6683 32.0493 31.6683 32.0493C32.0453 32.2225 32.3933 32.3669 32.3933 32.6267C32.3933 33.926 29.0583 34.2725 27.3183 34.2725C25.5783 34.2725 22.2433 33.926 22.2433 32.6267C22.2433 32.3669 22.5913 32.1936 22.9683 32.0493C22.9683 32.0493 22.3013 31.9338 21.9243 32.0204C21.5473 32.107 21.1123 32.338 21.1123 32.8577C21.1703 34.6479 25.2303 35.2542 27.3473 35.2542Z" fill="#008779"/>
<path d="M30.305 35.7739C29.406 36.1493 28.159 36.2648 27.347 36.2648C26.506 36.2648 25.201 36.1493 24.302 35.7451L22.707 35.5429C23.548 36.6979 25.955 37.1021 27.347 37.1021C28.739 37.1021 31.088 36.6979 31.958 35.5718L30.305 35.7739Z" fill="#008779"/>
<path d="M29.1448 37.4486C28.5938 37.7373 27.8398 37.8239 27.3758 37.8239C26.8828 37.8239 26.0708 37.7373 25.5488 37.4197L24.5918 37.2176C25.1138 38.1127 26.5638 38.4303 27.4048 38.4303C28.2458 38.4303 29.6668 38.1127 30.1888 37.2465L29.1448 37.4486Z" fill="#008779"/>
<path d="M28.1012 38.8922C27.8692 39.0944 27.5502 39.1521 27.3472 39.1521C27.1442 39.1521 26.7962 39.0944 26.5642 38.8922H26.1582C26.3612 39.4986 26.9702 39.7007 27.3472 39.7007C27.6952 39.7007 28.3042 39.4986 28.5072 38.8922H28.1012Z" fill="#008779"/>
<path d="M27.4628 4.90843C31.2908 4.90843 35.5828 5.02393 41.2088 5.83238C39.2078 5.28379 35.4958 4.04224 27.4628 4.04224C19.4588 4.04224 15.7468 5.28379 13.7168 5.83238C19.3428 4.99505 23.6348 4.90843 27.4628 4.90843Z" fill="#008779"/>
<path d="M64.7858 30.288V22.8387H62.6398V30.288H58.1738V11.9535H62.6398V18.5077H64.7858V11.9535H69.2518V30.288H64.7858Z" fill="#304F6F"/>
<path d="M71.6299 11.9535H79.9529V16.2845H76.0959V18.8254H79.5469V23.1563H76.0959V25.957H79.9529V30.288H71.6299V11.9535Z" fill="#304F6F"/>
<path d="M82.3018 11.9535H86.5648L90.1318 22.9831L90.1898 22.9254C90.0158 20.8176 89.6968 18.7099 89.6968 16.6021V11.9535H93.9888V30.288H89.6968L86.3618 19.7204L86.3038 19.7782C86.4198 21.5106 86.6228 23.2141 86.6228 24.9176V30.288H82.3308V11.9535H82.3018Z" fill="#304F6F"/>
<path d="M103.617 30.288L100.833 21.857H100.862H100.804V30.288H96.3379V11.9535H100.804V19.7493L100.775 19.807V19.7493H100.833L103.298 11.9535H108.025L104.429 20.7887L108.431 30.288H103.617Z" fill="#304F6F"/>
<path d="M109.968 11.9535H118.291V16.2845H114.463V18.8254H117.914V23.1563H114.463V25.957H118.291V30.288H109.968V11.9535Z" fill="#304F6F"/>
<path d="M120.64 30.288V11.9535H125.135V25.957H128.499V30.288H120.64Z" fill="#304F6F"/>
<path d="M141.839 30.288L141.433 18.7676H141.375C141.172 20.0958 141.027 21.4528 140.795 22.781L139.519 30.288H135.865L134.328 18.7676H134.299C134.27 20.1247 134.299 21.4528 134.241 22.8387L133.864 30.288H129.05L130.993 11.9535H136.561L137.837 21.6838H137.866C138.011 20.5289 138.098 19.4317 138.301 18.2768L139.374 11.9247H144.884L146.479 30.2592H141.839V30.288Z" fill="#304F6F"/>
<path d="M155.034 30.288L154.715 27.9204H151.699L151.322 30.288H146.711L150.684 11.9535H156.165L159.674 30.288H155.034ZM154.193 24.0225L153.7 19.7782C153.555 18.6232 153.468 17.4683 153.381 16.3423H153.323C153.178 17.4972 153.091 18.6521 152.917 19.7782L152.308 24.0225H154.193Z" fill="#304F6F"/>
<path d="M160.863 11.9535H165.126L168.693 22.9831L168.722 22.9254C168.548 20.8176 168.229 18.7099 168.229 16.6021V11.9535H172.55V30.288H168.258L164.923 19.7204L164.894 19.7782C165.01 21.5106 165.213 23.2141 165.213 24.9176V30.288H160.921V11.9535H160.863Z" fill="#304F6F"/>
<path d="M60.1172 8.54647C58.7832 8.54647 58.1162 7.16056 58.1162 5.13943C58.1162 3.14718 58.8702 1.76126 60.2042 1.76126C61.5962 1.76126 62.1472 3.29154 62.1472 5.08168C62.1762 7.56478 61.3062 8.54647 60.1172 8.54647ZM60.2042 7.62253C60.9002 7.62253 61.1032 6.43873 61.1032 5.11056C61.1032 3.89788 60.9002 2.65633 60.2042 2.65633C59.5082 2.65633 59.2472 3.89788 59.2762 5.11056C59.2182 6.43873 59.4792 7.62253 60.2042 7.62253Z" fill="#304F6F"/>
<path d="M75.0225 1.90562C75.3995 1.819 75.8635 1.79013 76.2985 1.79013C76.9945 1.79013 77.5745 1.90562 77.9515 2.28098C78.3285 2.62745 78.4445 3.08943 78.4445 3.63802C78.4445 4.4176 78.0675 4.99506 77.4005 5.31267V5.34154C77.8645 5.51478 78.1255 5.94788 78.2415 6.72745C78.3865 7.5359 78.5315 8.25774 78.6475 8.45985H77.5455C77.4585 8.28661 77.3135 7.62252 77.1975 6.84295C77.0815 5.97675 76.8205 5.68802 76.2985 5.68802H76.0665V8.45985H75.0225V1.90562ZM76.0665 4.87957H76.3565C76.9945 4.87957 77.3715 4.38872 77.3715 3.69576C77.3715 3.03168 77.1105 2.59858 76.4145 2.59858C76.2695 2.59858 76.1535 2.59858 76.0665 2.62745V4.87957Z" fill="#304F6F"/>
<path d="M92.4519 1.819H91.3789V8.45985H92.4519V1.819Z" fill="#304F6F"/>
<path d="M109.127 8.28661C108.837 8.4021 108.286 8.5176 107.822 8.5176C107.126 8.5176 106.575 8.34436 106.14 7.88238C105.618 7.33379 105.299 6.38098 105.299 5.22605C105.328 2.74295 106.691 1.79013 107.996 1.79013C108.46 1.79013 108.808 1.87675 109.011 1.99224L108.808 2.88731C108.634 2.80069 108.373 2.74295 108.054 2.74295C107.184 2.74295 106.401 3.37816 106.401 5.25492C106.401 7.04506 107.097 7.68027 107.793 7.68027C107.967 7.68027 108.083 7.6514 108.141 7.62253V5.77464H107.416V4.90844H109.098V8.28661H109.127Z" fill="#304F6F"/>
<path d="M123.163 1.819H122.09V8.45985H123.163V1.819Z" fill="#304F6F"/>
<path d="M136.329 8.45985V1.819H137.286L138.417 4.64858C138.649 5.25492 138.997 6.09224 139.2 6.75632H139.229C139.171 5.919 139.113 4.87956 139.113 3.69576V1.819H140.041V8.45985H139.084L137.953 5.63027C137.692 5.02393 137.402 4.21548 137.228 3.52252H137.17C137.228 4.3021 137.257 5.22604 137.257 6.61196V8.45985H136.329Z" fill="#304F6F"/>
<path d="M154.106 6.72745L153.758 8.45985H152.743L154.222 1.819H155.469L156.832 8.45985H155.817L155.469 6.72745H154.106ZM155.324 5.919L155.034 4.38872C154.947 3.95562 154.86 3.34928 154.773 2.88731H154.744C154.686 3.34928 154.57 3.98449 154.483 4.41759L154.193 5.94787H155.324V5.919Z" fill="#304F6F"/>
<path d="M169.592 1.819H170.636V7.56478H172.434V8.45985H169.592V1.819Z" fill="#304F6F"/>
<path d="M59.5659 40.307L58.0869 33.7528H59.2179L59.7689 36.6979C59.8849 37.4197 60.0589 38.2859 60.1459 39.0944H60.1749C60.2619 38.2859 60.4069 37.4486 60.5519 36.6979L61.0739 33.7817H62.2049L60.6969 40.3359H59.5659V40.307Z" fill="#304F6F"/>
<path d="M67.947 38.6035L67.599 40.307H66.584L68.063 33.7528H69.281L70.644 40.307H69.6L69.252 38.6035H67.947ZM69.136 37.7662L68.875 36.2648C68.788 35.8317 68.701 35.2253 68.643 34.7634H68.614C68.556 35.2253 68.44 35.8606 68.382 36.2648L68.092 37.7662H69.136Z" fill="#304F6F"/>
<path d="M78.6475 40.1916C78.4445 40.2782 78.0965 40.3648 77.6905 40.3648C76.1825 40.3648 75.3125 39.1232 75.3125 37.1021C75.3125 34.5901 76.6465 33.6662 77.8355 33.6662C78.2705 33.6662 78.5605 33.7528 78.7055 33.8394L78.5025 34.7345C78.3575 34.6479 78.1835 34.5901 77.8645 34.5901C77.1395 34.5901 76.4145 35.2542 76.4145 37.0444C76.4145 38.8056 77.0815 39.4408 77.8645 39.4408C78.0965 39.4408 78.3575 39.3831 78.5025 39.3254L78.6475 40.1916Z" fill="#304F6F"/>
<path d="M84.8253 33.7239V38.0549C84.8253 39.1232 85.1443 39.4697 85.5793 39.4697C86.0433 39.4697 86.3333 39.1521 86.3333 38.0549V33.7239H87.3772V37.8817C87.3772 39.5852 86.7103 40.3648 85.5793 40.3648C84.3613 40.3648 83.7812 39.5563 83.7812 37.9106V33.7239H84.8253Z" fill="#304F6F"/>
<path d="M93.96 33.7239V38.0549C93.96 39.1232 94.279 39.4697 94.714 39.4697C95.178 39.4697 95.468 39.1521 95.468 38.0549V33.7239H96.512V37.8817C96.512 39.5852 95.845 40.3648 94.714 40.3648C93.496 40.3648 92.916 39.5563 92.916 37.9106V33.7239H93.96Z" fill="#304F6F"/>
<path d="M106.053 37.7662C106.024 37.0155 105.966 36.1204 105.995 35.3986H105.966C105.85 36.1204 105.676 36.9 105.502 37.5352L104.806 40.1915H104.11L103.472 37.593C103.298 36.9289 103.124 36.1204 103.008 35.3697H102.95C102.95 36.1204 102.892 36.9866 102.863 37.7662L102.747 40.2782H101.848L102.283 33.7239H103.385L104.023 36.3803C104.226 37.2176 104.4 37.9106 104.516 38.6613H104.545C104.661 37.9106 104.806 37.2465 105.009 36.3803L105.618 33.7239H106.749L107.126 40.2782H106.169L106.053 37.7662Z" fill="#304F6F"/>
<path d="M118.349 39.181C118.581 39.3254 119.016 39.4408 119.364 39.4408C120.002 39.4408 120.35 39.0655 120.35 38.5169C120.35 37.9972 120.031 37.6796 119.48 37.3331C118.755 36.8711 118.233 36.207 118.233 35.5141C118.233 34.5035 118.929 33.6951 120.147 33.6951C120.582 33.6951 120.959 33.8106 121.133 33.9261L120.959 34.8211C120.785 34.7056 120.495 34.5901 120.147 34.5901C119.538 34.5901 119.277 34.9944 119.277 35.3986C119.277 35.9183 119.538 36.1493 120.205 36.5535C121.046 37.1021 121.365 37.7373 121.365 38.4303C121.365 39.6141 120.524 40.3648 119.335 40.3648C118.842 40.3648 118.349 40.2204 118.146 40.1049L118.349 39.181Z" fill="#304F6F"/>
<path d="M127.455 40.307V37.6796L126.005 33.7528H127.107L127.629 35.3408C127.774 35.7739 127.919 36.2937 128.035 36.7845H128.064C128.18 36.2937 128.296 35.8028 128.441 35.312L128.905 33.7528H129.978L128.499 37.6507V40.307H127.455Z" fill="#304F6F"/>
<path d="M134.705 39.181C134.937 39.3254 135.372 39.4408 135.72 39.4408C136.358 39.4408 136.706 39.0655 136.706 38.5169C136.706 37.9972 136.387 37.6796 135.836 37.3331C135.111 36.8711 134.589 36.207 134.589 35.5141C134.589 34.5035 135.285 33.6951 136.503 33.6951C136.938 33.6951 137.315 33.8106 137.489 33.9261L137.315 34.8211C137.141 34.7056 136.851 34.5901 136.503 34.5901C135.894 34.5901 135.633 34.9944 135.633 35.3986C135.633 35.9183 135.894 36.1493 136.561 36.5535C137.402 37.1021 137.721 37.7373 137.721 38.4303C137.721 39.6141 136.88 40.3648 135.691 40.3648C135.198 40.3648 134.705 40.2204 134.502 40.1049L134.705 39.181Z" fill="#304F6F"/>
<path d="M143.724 34.6768H142.535V33.7239H145.957V34.6768H144.768V40.307H143.724V34.6768Z" fill="#304F6F"/>
<path d="M153.7 37.3042H152.134V39.3831H153.903V40.307H151.09V33.7239H153.787V34.6479H152.134V36.438H153.7V37.3042Z" fill="#304F6F"/>
<path d="M163.183 37.7662C163.154 37.0155 163.096 36.1204 163.125 35.3986H163.096C162.98 36.1204 162.806 36.9 162.632 37.5352L161.936 40.1915H161.24L160.602 37.593C160.428 36.9289 160.254 36.1204 160.138 35.3697H160.08C160.08 36.1204 160.022 36.9866 159.993 37.7662L159.877 40.2782H158.978L159.413 33.7239H160.515L161.153 36.3803C161.356 37.2176 161.53 37.9106 161.646 38.6613H161.675C161.791 37.9106 161.936 37.2465 162.139 36.3803L162.748 33.7239H163.879L164.256 40.2782H163.299L163.183 37.7662Z" fill="#304F6F"/>
<path d="M169.505 39.181C169.737 39.3254 170.172 39.4408 170.52 39.4408C171.158 39.4408 171.506 39.0655 171.506 38.5169C171.506 37.9972 171.187 37.6796 170.636 37.3331C169.911 36.8711 169.389 36.207 169.389 35.5141C169.389 34.5035 170.085 33.6951 171.303 33.6951C171.738 33.6951 172.115 33.8106 172.289 33.9261L172.115 34.8211C171.941 34.7056 171.651 34.5901 171.303 34.5901C170.694 34.5901 170.433 34.9944 170.433 35.3986C170.433 35.9183 170.694 36.1493 171.361 36.5535C172.202 37.1021 172.521 37.7373 172.521 38.4303C172.521 39.6141 171.68 40.3648 170.491 40.3648C169.998 40.3648 169.505 40.2204 169.302 40.1049L169.505 39.181Z" fill="#304F6F"/>
</svg>
