<svg width="174" height="41" viewBox="0 0 174 41" fill="none" xmlns="http://www.w3.org/2000/svg">
<path d="M27.4629 10.0767C18.299 10.0767 1.44995 9.09506 1.44995 4.64858C1.44995 0.981675 21.344 0.606323 27.4629 0.606323C33.5529 0.606323 53.824 0.923929 53.824 4.90844C53.824 9.09506 35.438 10.0767 27.4629 10.0767ZM48.894 4.93731C48.894 2.51196 32.4219 2.33872 27.4629 2.33872C22.504 2.33872 6.32195 2.5697 6.32195 4.76407C6.32195 7.42041 20.0099 8.02675 27.4629 8.02675C33.93 8.02675 48.894 7.44928 48.894 4.93731Z" fill="#008779"/>
<path d="M27.347 16.7753C33.843 16.7753 46.11 15.5626 46.11 11.9246C46.11 10.9141 44.863 10.4232 43.674 10.25C42.485 10.0767 40.194 9.99011 40.194 9.99011C41.325 10.3077 42.717 10.9429 42.717 11.4915C42.717 14.0901 32.625 14.7831 27.347 14.7831C22.069 14.7831 11.977 14.0901 11.977 11.4915C11.977 10.9429 13.369 10.3366 14.5 9.99011C14.5 9.99011 12.209 10.0767 11.02 10.25C9.83098 10.4232 8.58398 10.8852 8.58398 11.9246C8.58398 15.5626 20.851 16.7753 27.347 16.7753Z" fill="#008779"/>
<path d="M27.3469 21.7992C32.9729 21.7992 43.6159 20.7887 43.6159 17.7281C43.6159 16.8619 42.5429 16.4865 41.5279 16.3133C40.5129 16.1689 38.7729 16.3422 38.7729 16.3422C39.7589 16.602 40.6869 16.8908 40.6869 17.3527C40.6869 19.5471 31.9289 20.1246 27.3759 20.1246C22.7939 20.1246 14.0649 19.5471 14.0649 17.3527C14.0649 16.8908 14.9929 16.6309 15.9789 16.3422C15.9789 16.3422 14.2389 16.1689 13.2239 16.3133C12.2089 16.4577 11.1069 16.8619 11.1069 17.7281C11.1069 20.7887 21.7209 21.7992 27.3469 21.7992Z" fill="#008779"/>
<path d="M27.3469 27.0831C31.4359 27.0831 39.1789 26.1591 39.1789 23.3007C39.1789 22.4922 38.3959 22.1457 37.6419 22.0014C36.8879 21.857 35.3509 21.7704 35.3509 21.7704C36.0759 22.0302 37.0329 22.55 37.0329 22.9831C37.0329 25.0042 30.6819 25.5528 27.3469 25.5528C24.0119 25.5528 17.6609 25.0331 17.6609 22.9831C17.6609 22.55 18.6469 22.0014 19.3429 21.7704C19.3429 21.7704 17.8059 21.8859 17.0519 22.0302C16.2979 22.1746 15.5149 22.5211 15.5149 23.3295C15.5439 26.1591 23.2579 27.0831 27.3469 27.0831Z" fill="#008779"/>
<path d="M27.3471 31.5873C30.2471 31.5873 35.7281 30.8366 35.7281 28.5267C35.7281 27.8915 35.1771 27.5739 34.6551 27.4873C34.1331 27.3718 33.2341 27.0542 33.2341 27.0542C33.7271 27.2563 34.2201 27.9204 34.2201 28.2669C34.2201 29.9127 29.7251 30.3457 27.3471 30.3457C24.9981 30.3457 20.4741 29.9127 20.4741 28.2669C20.4741 27.9204 20.9671 27.2563 21.4601 27.0542C21.4601 27.0542 20.5611 27.3718 20.0391 27.4873C19.5171 27.6028 18.9661 27.8915 18.9661 28.5267C18.9951 30.8366 24.4471 31.5873 27.3471 31.5873Z" fill="#008779"/>
<path d="M27.3471 35.2542C29.4931 35.2542 33.5241 34.6478 33.5241 32.8577C33.5241 32.338 33.1181 32.107 32.7121 32.0204C32.3351 31.9338 31.6681 32.0492 31.6681 32.0492C32.0451 32.2225 32.3931 32.3669 32.3931 32.6267C32.3931 33.926 29.0581 34.2725 27.3181 34.2725C25.5781 34.2725 22.2431 33.926 22.2431 32.6267C22.2431 32.3669 22.5911 32.1936 22.9681 32.0492C22.9681 32.0492 22.3011 31.9338 21.9241 32.0204C21.5471 32.107 21.1121 32.338 21.1121 32.8577C21.1701 34.6478 25.2301 35.2542 27.3471 35.2542Z" fill="#008779"/>
<path d="M30.305 35.774C29.406 36.1493 28.159 36.2648 27.347 36.2648C26.506 36.2648 25.201 36.1493 24.302 35.7451L22.707 35.543C23.548 36.6979 25.955 37.1021 27.347 37.1021C28.739 37.1021 31.088 36.6979 31.958 35.5718L30.305 35.774Z" fill="#008779"/>
<path d="M29.145 37.4485C28.594 37.7372 27.84 37.8239 27.376 37.8239C26.883 37.8239 26.071 37.7373 25.549 37.4196L24.592 37.2175C25.114 38.1126 26.564 38.4302 27.405 38.4302C28.246 38.4302 29.667 38.1126 30.189 37.2464L29.145 37.4485Z" fill="#008779"/>
<path d="M28.101 38.8922C27.869 39.0943 27.55 39.1521 27.347 39.1521C27.144 39.1521 26.796 39.0943 26.564 38.8922H26.158C26.361 39.4985 26.97 39.7007 27.347 39.7007C27.695 39.7007 28.304 39.4985 28.507 38.8922H28.101Z" fill="#008779"/>
<path d="M27.463 4.90843C31.291 4.90843 35.583 5.02393 41.209 5.83238C39.208 5.28379 35.496 4.04224 27.463 4.04224C19.459 4.04224 15.747 5.28379 13.717 5.83238C19.343 4.99505 23.635 4.90843 27.463 4.90843Z" fill="#008779"/>
<path d="M64.7858 30.288V22.8387H62.6398V30.288H58.1738V11.9535H62.6398V18.5077H64.7858V11.9535H69.2518V30.288H64.7858Z" fill="black"/>
<path d="M71.6299 11.9535H79.9529V16.2845H76.0959V18.8253H79.5469V23.1563H76.0959V25.957H79.9529V30.288H71.6299V11.9535Z" fill="black"/>
<path d="M82.302 11.9535H86.565L90.132 22.9831L90.19 22.9253C90.016 20.8176 89.697 18.7098 89.697 16.6021V11.9535H93.989V30.288H89.697L86.362 19.7204L86.304 19.7781C86.42 21.5105 86.623 23.2141 86.623 24.9176V30.288H82.331V11.9535H82.302Z" fill="black"/>
<path d="M103.617 30.288L100.833 21.857H100.862H100.804V30.288H96.3379V11.9535H100.804V19.7493L100.775 19.807V19.7493H100.833L103.298 11.9535H108.025L104.429 20.7887L108.431 30.288H103.617Z" fill="black"/>
<path d="M109.968 11.9535H118.291V16.2845H114.463V18.8253H117.914V23.1563H114.463V25.957H118.291V30.288H109.968V11.9535Z" fill="black"/>
<path d="M120.64 30.288V11.9535H125.135V25.957H128.499V30.288H120.64Z" fill="black"/>
<path d="M141.839 30.2879L141.433 18.7675H141.375C141.172 20.0957 141.027 21.4527 140.795 22.7809L139.519 30.2879H135.865L134.328 18.7675H134.299C134.27 20.1246 134.299 21.4527 134.241 22.8386L133.864 30.2879H129.05L130.993 11.9534H136.561L137.837 21.6837H137.866C138.011 20.5288 138.098 19.4316 138.301 18.2767L139.374 11.9246H144.884L146.479 30.2591H141.839V30.2879Z" fill="black"/>
<path d="M155.034 30.288L154.715 27.9204H151.699L151.322 30.288H146.711L150.684 11.9535H156.165L159.674 30.288H155.034ZM154.193 24.0225L153.7 19.7781C153.555 18.6232 153.468 17.4683 153.381 16.3422H153.323C153.178 17.4972 153.091 18.6521 152.917 19.7781L152.308 24.0225H154.193Z" fill="black"/>
<path d="M160.863 11.9535H165.126L168.693 22.9831L168.722 22.9253C168.548 20.8176 168.229 18.7098 168.229 16.6021V11.9535H172.55V30.288H168.258L164.923 19.7204L164.894 19.7781C165.01 21.5105 165.213 23.2141 165.213 24.9176V30.288H160.921V11.9535H160.863Z" fill="black"/>
<path d="M60.117 8.54644C58.783 8.54644 58.116 7.16053 58.116 5.1394C58.116 3.14715 58.87 1.76123 60.204 1.76123C61.596 1.76123 62.147 3.29151 62.147 5.08165C62.176 7.56475 61.306 8.54644 60.117 8.54644ZM60.204 7.6225C60.9 7.6225 61.103 6.43869 61.103 5.11053C61.103 3.89785 60.9 2.6563 60.204 2.6563C59.508 2.6563 59.247 3.89785 59.276 5.11053C59.218 6.43869 59.479 7.6225 60.204 7.6225Z" fill="black"/>
<path d="M75.0229 1.90565C75.3999 1.81903 75.8639 1.79016 76.2989 1.79016C76.9949 1.79016 77.5749 1.90565 77.9519 2.28101C78.3289 2.62749 78.4449 3.08946 78.4449 3.63805C78.4449 4.41763 78.0679 4.99509 77.4009 5.3127V5.34157C77.8649 5.51481 78.1259 5.94791 78.2419 6.72748C78.3869 7.53593 78.5319 8.25777 78.6479 8.45988H77.5459C77.4589 8.28664 77.3139 7.62256 77.1979 6.84298C77.0819 5.97678 76.8209 5.68805 76.2989 5.68805H76.0669V8.45988H75.0229V1.90565ZM76.0669 4.8796H76.3569C76.9949 4.8796 77.3719 4.38875 77.3719 3.69579C77.3719 3.03171 77.1109 2.59861 76.4149 2.59861C76.2699 2.59861 76.1539 2.59861 76.0669 2.62749V4.8796Z" fill="black"/>
<path d="M92.4519 1.81897H91.3789V8.45982H92.4519V1.81897Z" fill="black"/>
<path d="M109.127 8.28664C108.837 8.40213 108.286 8.51763 107.822 8.51763C107.126 8.51763 106.575 8.34439 106.14 7.88241C105.618 7.33382 105.299 6.38101 105.299 5.22608C105.328 2.74298 106.691 1.79016 107.996 1.79016C108.46 1.79016 108.808 1.87678 109.011 1.99227L108.808 2.88734C108.634 2.80072 108.373 2.74298 108.054 2.74298C107.184 2.74298 106.401 3.37819 106.401 5.25495C106.401 7.04509 107.097 7.6803 107.793 7.6803C107.967 7.6803 108.083 7.65143 108.141 7.62256V5.77467H107.416V4.90847H109.098V8.28664H109.127Z" fill="black"/>
<path d="M123.163 1.81897H122.09V8.45982H123.163V1.81897Z" fill="black"/>
<path d="M136.329 8.45982V1.81897H137.286L138.417 4.64855C138.649 5.25489 138.997 6.09221 139.2 6.75629H139.229C139.171 5.91897 139.113 4.87953 139.113 3.69573V1.81897H140.041V8.45982H139.084L137.953 5.63024C137.692 5.0239 137.402 4.21545 137.228 3.52249H137.17C137.228 4.30207 137.257 5.22601 137.257 6.61193V8.45982H136.329Z" fill="black"/>
<path d="M154.106 6.72742L153.758 8.45982H152.743L154.222 1.81897H155.469L156.832 8.45982H155.817L155.469 6.72742H154.106ZM155.324 5.91897L155.034 4.38869C154.947 3.95559 154.86 3.34925 154.773 2.88728H154.744C154.686 3.34925 154.57 3.98446 154.483 4.41756L154.193 5.94784H155.324V5.91897Z" fill="black"/>
<path d="M169.592 1.81897H170.636V7.56474H172.434V8.45982H169.592V1.81897Z" fill="black"/>
<path d="M59.5659 40.307L58.0869 33.7528H59.2179L59.7689 36.6979C59.8849 37.4197 60.0589 38.2859 60.1459 39.0944H60.1749C60.2619 38.2859 60.4069 37.4486 60.5519 36.6979L61.0739 33.7817H62.2049L60.6969 40.3359H59.5659V40.307Z" fill="black"/>
<path d="M67.947 38.6035L67.599 40.307H66.584L68.063 33.7528H69.281L70.644 40.307H69.6L69.252 38.6035H67.947ZM69.136 37.7662L68.875 36.2648C68.788 35.8317 68.701 35.2253 68.643 34.7634H68.614C68.556 35.2253 68.44 35.8606 68.382 36.2648L68.092 37.7662H69.136Z" fill="black"/>
<path d="M78.648 40.1915C78.445 40.2781 78.097 40.3647 77.691 40.3647C76.183 40.3647 75.313 39.1232 75.313 37.1021C75.313 34.5901 76.647 33.6661 77.836 33.6661C78.271 33.6661 78.561 33.7528 78.706 33.8394L78.503 34.7344C78.358 34.6478 78.184 34.5901 77.865 34.5901C77.14 34.5901 76.415 35.2542 76.415 37.0443C76.415 38.8056 77.082 39.4408 77.865 39.4408C78.097 39.4408 78.358 39.383 78.503 39.3253L78.648 40.1915Z" fill="black"/>
<path d="M84.825 33.7239V38.0549C84.825 39.1232 85.144 39.4697 85.579 39.4697C86.043 39.4697 86.333 39.152 86.333 38.0549V33.7239H87.377V37.8816C87.377 39.5851 86.71 40.3647 85.579 40.3647C84.361 40.3647 83.781 39.5563 83.781 37.9105V33.7239H84.825Z" fill="black"/>
<path d="M93.96 33.7239V38.0549C93.96 39.1232 94.279 39.4697 94.714 39.4697C95.178 39.4697 95.468 39.152 95.468 38.0549V33.7239H96.512V37.8816C96.512 39.5851 95.845 40.3647 94.714 40.3647C93.496 40.3647 92.916 39.5563 92.916 37.9105V33.7239H93.96Z" fill="black"/>
<path d="M106.053 37.7661C106.024 37.0154 105.966 36.1204 105.995 35.3985H105.966C105.85 36.1204 105.676 36.8999 105.502 37.5351L104.806 40.1915H104.11L103.472 37.5929C103.298 36.9288 103.124 36.1204 103.008 35.3697H102.95C102.95 36.1204 102.892 36.9866 102.863 37.7661L102.747 40.2781H101.848L102.283 33.7239H103.385L104.023 36.3802C104.226 37.2175 104.4 37.9105 104.516 38.6612H104.545C104.661 37.9105 104.806 37.2464 105.009 36.3802L105.618 33.7239H106.749L107.126 40.2781H106.169L106.053 37.7661Z" fill="black"/>
<path d="M118.349 39.181C118.581 39.3254 119.016 39.4408 119.364 39.4408C120.002 39.4408 120.35 39.0655 120.35 38.5169C120.35 37.9972 120.031 37.6796 119.48 37.3331C118.755 36.8711 118.233 36.207 118.233 35.5141C118.233 34.5035 118.929 33.6951 120.147 33.6951C120.582 33.6951 120.959 33.8106 121.133 33.9261L120.959 34.8211C120.785 34.7056 120.495 34.5901 120.147 34.5901C119.538 34.5901 119.277 34.9944 119.277 35.3986C119.277 35.9183 119.538 36.1493 120.205 36.5535C121.046 37.1021 121.365 37.7373 121.365 38.4303C121.365 39.6141 120.524 40.3648 119.335 40.3648C118.842 40.3648 118.349 40.2204 118.146 40.1049L118.349 39.181Z" fill="black"/>
<path d="M127.455 40.307V37.6796L126.005 33.7528H127.107L127.629 35.3408C127.774 35.7739 127.919 36.2937 128.035 36.7845H128.064C128.18 36.2937 128.296 35.8028 128.441 35.312L128.905 33.7528H129.978L128.499 37.6507V40.307H127.455Z" fill="black"/>
<path d="M134.705 39.181C134.937 39.3254 135.372 39.4408 135.72 39.4408C136.358 39.4408 136.706 39.0655 136.706 38.5169C136.706 37.9972 136.387 37.6796 135.836 37.3331C135.111 36.8711 134.589 36.207 134.589 35.5141C134.589 34.5035 135.285 33.6951 136.503 33.6951C136.938 33.6951 137.315 33.8106 137.489 33.9261L137.315 34.8211C137.141 34.7056 136.851 34.5901 136.503 34.5901C135.894 34.5901 135.633 34.9944 135.633 35.3986C135.633 35.9183 135.894 36.1493 136.561 36.5535C137.402 37.1021 137.721 37.7373 137.721 38.4303C137.721 39.6141 136.88 40.3648 135.691 40.3648C135.198 40.3648 134.705 40.2204 134.502 40.1049L134.705 39.181Z" fill="black"/>
<path d="M143.724 34.6767H142.535V33.7239H145.957V34.6767H144.768V40.307H143.724V34.6767Z" fill="black"/>
<path d="M153.7 37.3042H152.134V39.383H153.903V40.307H151.09V33.7239H153.787V34.6478H152.134V36.438H153.7V37.3042Z" fill="black"/>
<path d="M163.183 37.7661C163.154 37.0154 163.096 36.1204 163.125 35.3985H163.096C162.98 36.1204 162.806 36.8999 162.632 37.5351L161.936 40.1915H161.24L160.602 37.5929C160.428 36.9288 160.254 36.1204 160.138 35.3697H160.08C160.08 36.1204 160.022 36.9866 159.993 37.7661L159.877 40.2781H158.978L159.413 33.7239H160.515L161.153 36.3802C161.356 37.2175 161.53 37.9105 161.646 38.6612H161.675C161.791 37.9105 161.936 37.2464 162.139 36.3802L162.748 33.7239H163.879L164.256 40.2781H163.299L163.183 37.7661Z" fill="black"/>
<path d="M169.505 39.181C169.737 39.3254 170.172 39.4408 170.52 39.4408C171.158 39.4408 171.506 39.0655 171.506 38.5169C171.506 37.9972 171.187 37.6796 170.636 37.3331C169.911 36.8711 169.389 36.207 169.389 35.5141C169.389 34.5035 170.085 33.6951 171.303 33.6951C171.738 33.6951 172.115 33.8106 172.289 33.9261L172.115 34.8211C171.941 34.7056 171.651 34.5901 171.303 34.5901C170.694 34.5901 170.433 34.9944 170.433 35.3986C170.433 35.9183 170.694 36.1493 171.361 36.5535C172.202 37.1021 172.521 37.7373 172.521 38.4303C172.521 39.6141 171.68 40.3648 170.491 40.3648C169.998 40.3648 169.505 40.2204 169.302 40.1049L169.505 39.181Z" fill="black"/>
</svg>
