<svg width="22" height="22" viewBox="0 0 22 22" fill="none" xmlns="http://www.w3.org/2000/svg">
<circle cx="11" cy="11" r="11" fill="#FB4848" fill-opacity="0.15"/>
<g clip-path="url(#clip0_73_1520)">
<path d="M13.853 6.91768C13.742 6.80511 13.5623 6.80511 13.4513 6.91768L11.0006 9.40346L8.54999 6.91768C8.439 6.80511 8.25927 6.80511 8.14828 6.91768L6.91722 8.16633C6.80624 8.2789 6.80624 8.46121 6.91722 8.57378L9.30917 10.9999L6.91722 13.4261C6.80624 13.5386 6.80624 13.7209 6.91722 13.8335L8.14828 15.0822C8.25927 15.1947 8.439 15.1947 8.54999 15.0822L11.0006 12.5964L13.4513 15.0822C13.5623 15.1947 13.742 15.1947 13.853 15.0822L15.0841 13.8333C15.1951 13.7207 15.1951 13.5384 15.0841 13.4259L12.6923 10.9999L15.0841 8.57397C15.1951 8.4614 15.1951 8.27909 15.0841 8.16652L13.853 6.91768Z" fill="#FB4848"/>
</g>
<defs>
<clipPath id="clip0_73_1520">
<rect width="10" height="10" fill="white" transform="translate(6 6)"/>
</clipPath>
</defs>
</svg>
