<svg width="36" height="36" viewBox="0 0 36 36" fill="none" xmlns="http://www.w3.org/2000/svg">
<circle cx="18" cy="18" r="17.5" stroke="#304F6E" stroke-opacity="0.15"/>
<path d="M23.7467 17.5334L19.1267 12.9134C18.8689 12.6556 18.4512 12.6556 18.1934 12.9134C17.9357 13.1711 17.9357 13.5889 18.1934 13.8466L21.6868 17.34H12.7201C12.3557 17.34 12.0601 17.6357 12.0601 18C12.0601 18.3643 12.3557 18.66 12.7201 18.66H21.6868L18.1934 22.1534C17.9357 22.4111 17.9357 22.8289 18.1934 23.0866C18.3225 23.2156 18.4911 23.28 18.6601 23.28C18.829 23.28 18.9976 23.2156 19.1267 23.0866L23.7467 18.4666C24.0044 18.2089 24.0044 17.7911 23.7467 17.5334Z" fill="#343C4B"/>
</svg>
