<svg width="12" height="12" viewBox="0 0 12 12" fill="none" xmlns="http://www.w3.org/2000/svg">
<g opacity="0.4">
<path d="M9.42284 1.10122C9.28966 0.966137 9.07398 0.966137 8.94079 1.10122L5.99989 4.08416L3.0592 1.10122C2.92602 0.966137 2.71034 0.966137 2.57716 1.10122L1.09989 2.59961C0.966705 2.73469 0.966705 2.95346 1.09989 3.08854L3.97023 5.99991L1.09989 8.91127C0.966705 9.04636 0.966705 9.26512 1.09989 9.40021L2.57716 10.8986C2.71034 11.0337 2.92602 11.0337 3.0592 10.8986L5.99989 7.91565L8.94079 10.8986C9.07398 11.0337 9.28966 11.0337 9.42284 10.8986L10.9001 9.39998C11.0333 9.26489 11.0333 9.04613 10.9001 8.91104L8.03 5.99991L10.9001 3.08877C11.0333 2.95369 11.0333 2.73492 10.9001 2.59984L9.42284 1.10122Z" fill="#35373D"/>
</g>
</svg>
