<svg width="50" height="50" viewBox="0 0 50 50" fill="none" xmlns="http://www.w3.org/2000/svg">
<circle cx="25" cy="25" r="24.5" stroke="#304F6F" stroke-opacity="0.2"/>
<path d="M25 18.5833C22.1217 18.5833 19.753 20.8062 19.5197 23.625H19.2708C17.1226 23.625 15.375 25.3726 15.375 27.5208C15.375 29.669 17.1226 31.4167 19.2708 31.4167H21.6243C21.4368 31.1495 21.3333 30.8332 21.3333 30.5C21.3333 30.3414 21.3636 30.1892 21.4076 30.0417H19.2708C17.8807 30.0417 16.75 28.911 16.75 27.5208C16.75 26.1307 17.8807 25 19.2708 25H20.1875C20.5675 25 20.875 24.6925 20.875 24.3125V24.0833C20.875 21.8091 22.7258 19.9583 25 19.9583C27.2743 19.9583 29.125 21.8091 29.125 24.0833V24.3125C29.125 24.6925 29.4325 25 29.8125 25H30.7292C32.1193 25 33.25 26.1307 33.25 27.5208C33.25 28.911 32.1193 30.0417 30.7292 30.0417H28.5924C28.6364 30.1892 28.6667 30.3414 28.6667 30.5C28.6667 30.8332 28.5632 31.1495 28.3757 31.4167H30.7292C32.8774 31.4167 34.625 29.669 34.625 27.5208C34.625 25.3726 32.8774 23.625 30.7292 23.625H30.4803C30.247 20.8062 27.8783 18.5833 25 18.5833ZM24.9893 24.9901C24.8071 24.993 24.6335 25.068 24.5066 25.1988C24.3797 25.3295 24.3099 25.5053 24.3125 25.6875V30.9028L23.4236 30.0139C23.3602 29.9479 23.2844 29.8953 23.2004 29.859C23.1164 29.8227 23.0261 29.8035 22.9346 29.8026C22.8431 29.8016 22.7524 29.819 22.6677 29.8535C22.583 29.8881 22.5061 29.9392 22.4414 30.0039C22.3768 30.0686 22.3256 30.1455 22.2911 30.2302C22.2565 30.3149 22.2392 30.4056 22.2401 30.4971C22.241 30.5886 22.2602 30.6789 22.2965 30.7629C22.3328 30.8468 22.3854 30.9227 22.4514 30.9861L24.4548 32.9895C24.5193 33.0735 24.6022 33.1415 24.6973 33.1882C24.7923 33.2349 24.8968 33.259 25.0027 33.2586C25.1086 33.2583 25.2129 33.2335 25.3076 33.1862C25.4024 33.1389 25.4849 33.0703 25.5487 32.9859L27.5486 30.9861C27.6146 30.9227 27.6672 30.8468 27.7035 30.7629C27.7398 30.6789 27.759 30.5886 27.7599 30.4971C27.7608 30.4056 27.7435 30.3149 27.7089 30.2302C27.6744 30.1455 27.6232 30.0686 27.5586 30.0039C27.4939 29.9392 27.417 29.8881 27.3323 29.8535C27.2476 29.819 27.1569 29.8016 27.0654 29.8026C26.9739 29.8035 26.8836 29.8227 26.7996 29.859C26.7156 29.8953 26.6398 29.9479 26.5764 30.0139L25.6875 30.9028V25.6875C25.6888 25.5955 25.6717 25.5041 25.637 25.4189C25.6024 25.3336 25.551 25.2562 25.4859 25.1911C25.4208 25.1261 25.3433 25.0748 25.2579 25.0403C25.1726 25.0058 25.0813 24.9887 24.9893 24.9901Z" fill="#0068D7"/>
</svg>
