<svg width="22" height="22" viewBox="0 0 22 22" fill="none" xmlns="http://www.w3.org/2000/svg">
<path d="M17.7174 8.49572L18.8357 7.37738C19.9971 6.21597 19.9971 4.3258 18.8357 3.16392C18.2733 2.60201 17.5258 2.29309 16.7287 2.29309C15.9317 2.29309 15.1837 2.60247 14.6218 3.16438L13.5039 4.28226L17.7174 8.49572ZM12.5318 5.25438L4.25014 13.536C4.07369 13.7125 3.93939 13.9302 3.86148 14.1662L2.32606 18.805C2.24402 19.0516 2.30864 19.3234 2.49244 19.5072C2.62398 19.6383 2.79906 19.7084 2.97873 19.7084C3.05114 19.7084 3.12402 19.6969 3.19506 19.6735L7.83248 18.1377C8.06944 18.0598 8.2876 17.9255 8.46406 17.7485L16.7452 9.46738L12.5318 5.25438Z" fill="white"/>
</svg>
