<svg width="22" height="22" viewBox="0 0 22 22" fill="none" xmlns="http://www.w3.org/2000/svg">
<path d="M4.81315 3.66667C3.17601 3.66667 1.83398 5.0087 1.83398 6.64584V15.3542C1.83398 16.9913 3.17601 18.3333 4.81315 18.3333H17.1882C18.8253 18.3333 20.1673 16.9913 20.1673 15.3542V6.64584C20.1673 5.0087 18.8253 3.66667 17.1882 3.66667H4.81315ZM4.81315 5.04167H17.1882C18.0819 5.04167 18.7923 5.75206 18.7923 6.64584V7.15251L11.0007 11.3643L3.20898 7.15251V6.64584C3.20898 5.75206 3.91937 5.04167 4.81315 5.04167ZM3.20898 8.7155L10.6739 12.751C10.7743 12.8052 10.8866 12.8336 11.0007 12.8336C11.1147 12.8336 11.227 12.8052 11.3274 12.751L18.7923 8.7155V15.3542C18.7923 16.248 18.0819 16.9583 17.1882 16.9583H4.81315C3.91937 16.9583 3.20898 16.248 3.20898 15.3542V8.7155Z" fill="#304F6F"/>
</svg>
