<svg width="48" height="48" viewBox="0 0 48 48" fill="none" xmlns="http://www.w3.org/2000/svg">
<path d="M24 4.00195C22.4919 4.00195 20.9842 4.17961 19.4512 4.53711C18.8312 4.68211 18.3698 5.20294 18.3008 5.83594L17.9824 8.73828C17.8784 9.68428 17.324 10.5348 16.5 11.0098C15.677 11.4868 14.666 11.5402 13.793 11.1562L11.123 9.98242C10.541 9.72442 9.86273 9.86608 9.42773 10.3301C7.31973 12.5761 5.73833 15.2982 4.86133 18.2012C4.67633 18.8102 4.89816 19.4687 5.41016 19.8457L7.77539 21.5801C8.54239 22.1441 9 23.048 9 24C9 24.952 8.54144 25.8569 7.77344 26.4199L5.4082 28.1523C4.8952 28.5293 4.67633 29.1888 4.86133 29.7988C5.73933 32.7018 7.31778 35.4239 9.42578 37.6699C9.86178 38.1339 10.543 38.2726 11.123 38.0156L13.791 36.8438C14.662 36.4608 15.674 36.5152 16.498 36.9902C17.322 37.4662 17.8765 38.3157 17.9805 39.2617L18.2988 42.1621C18.3678 42.7951 18.8292 43.3159 19.4492 43.4609C20.9832 43.8189 22.515 44 24 44C25.485 44 27.0158 43.8199 28.5488 43.4629C28.9068 43.3799 29.2012 43.161 29.4082 42.877C28.3702 42.339 27.4442 41.6244 26.6582 40.7734C24.8022 41.0754 23.0231 41.071 21.1621 40.75L20.9648 38.9355C20.7568 37.0415 19.648 35.3436 18 34.3926C16.351 33.4396 14.325 33.3307 12.584 34.0977L10.918 34.8281C9.69697 33.3561 8.72841 31.6898 8.06641 29.9238L9.54687 28.8398C11.0829 27.7138 12 25.903 12 24C12 22.097 11.0838 20.2862 9.54883 19.1602L8.06836 18.0762C8.72936 16.3092 9.69892 14.6429 10.9199 13.1719L12.584 13.9023C14.326 14.6683 16.351 14.5584 18 13.6074C19.648 12.6564 20.7578 10.9585 20.9648 9.06445L21.1621 7.25C23.0831 6.918 24.9169 6.918 26.8379 7.25L27.0352 9.06445C27.2432 10.9585 28.352 12.6564 30 13.6074C31.648 14.5584 33.673 14.6683 35.416 13.9023L37.082 13.1719C38.303 14.6439 39.2716 16.3102 39.9336 18.0762L38.4531 19.1602C36.9171 20.2862 36 22.097 36 24C36 24.068 36.0097 24.1351 36.0117 24.2031C37.2577 24.4581 38.4153 24.9481 39.4453 25.6191C39.1713 25.1041 39 24.527 39 24C39 23.048 39.4586 22.1431 40.2266 21.5801L42.5918 19.8477C43.1048 19.4707 43.3237 18.8112 43.1387 18.2012C42.2607 15.2982 40.6822 12.5761 38.5742 10.3301C38.1382 9.86708 37.46 9.72738 36.877 9.98438L34.209 11.1562C33.338 11.5392 32.326 11.4848 31.502 11.0098C30.678 10.5348 30.1235 9.68428 30.0195 8.73828L29.6992 5.83594C29.6302 5.20294 29.1688 4.68211 28.5488 4.53711C27.0163 4.17961 25.5081 4.00195 24 4.00195ZM24 16C19.589 16 16 19.589 16 24C16 28.411 19.589 32 24 32C24.068 32 24.1332 31.9912 24.2012 31.9902C24.4402 30.8182 24.8939 29.7262 25.5039 28.7422C25.0269 28.8942 24.528 29 24 29C21.243 29 19 26.757 19 24C19 21.243 21.243 19 24 19C26.757 19 29 21.243 29 24C29 24.528 28.8942 25.0279 28.7422 25.5059C29.7262 24.8959 30.8182 24.4421 31.9902 24.2031C31.9912 24.1341 32 24.068 32 24C32 19.589 28.411 16 24 16ZM34 26C29.589 26 26 29.589 26 34C26 38.411 29.589 42 34 42C35.665 42 37.2102 41.4873 38.4922 40.6133L43.4395 45.5605C43.7325 45.8545 44.116 46 44.5 46C44.884 46 45.2675 45.8535 45.5605 45.5605C46.1455 44.9745 46.1455 44.0255 45.5605 43.4395L40.6152 38.4922C41.4882 37.2102 42 35.665 42 34C42 29.589 38.411 26 34 26ZM34 29C36.757 29 39 31.243 39 34C39 36.757 36.757 39 34 39C31.243 39 29 36.757 29 34C29 31.243 31.243 29 34 29Z" fill="#0068D7"/>
</svg>
