<svg width="48" height="48" viewBox="0 0 48 48" fill="none" xmlns="http://www.w3.org/2000/svg">
<path d="M23.9999 4C22.423 4 20.9026 4.19943 19.4511 4.53711C19.1484 4.60776 18.8751 4.77067 18.6691 5.00334C18.463 5.23601 18.3343 5.52695 18.3007 5.83594L17.9823 8.73828C17.8782 9.68936 17.3288 10.5309 16.4999 11.0098C15.6726 11.4877 14.6685 11.5407 13.7929 11.1562H13.7909L11.1249 9.98242C10.8405 9.85728 10.5243 9.82352 10.22 9.88579C9.91558 9.94807 9.63805 10.1033 9.42568 10.3301C7.35319 12.5396 5.76258 15.2151 4.85928 18.2012C4.7693 18.4984 4.77377 18.8162 4.87207 19.1107C4.97038 19.4053 5.15767 19.6621 5.40811 19.8457L7.77334 21.5801C8.5457 22.1479 8.9999 23.0428 8.9999 24C8.9999 24.9577 8.54571 25.8533 7.77334 26.4199L5.40811 28.1523C5.15767 28.3359 4.97038 28.5927 4.87207 28.8873C4.77377 29.1819 4.7693 29.4997 4.85928 29.7969C5.76249 32.7827 7.35183 35.4601 9.42568 37.6699C9.63828 37.8964 9.91592 38.0512 10.2203 38.1132C10.5246 38.1751 10.8407 38.141 11.1249 38.0156L13.7909 36.8418C14.667 36.4565 15.6721 36.5119 16.4999 36.9902C17.3288 37.4691 17.8782 38.3106 17.9823 39.2617L18.3007 42.1641C18.3345 42.4724 18.4631 42.7628 18.6688 42.995C18.8745 43.2273 19.1471 43.3901 19.4491 43.4609C20.9013 43.7998 22.423 44 23.9999 44C25.5768 44 27.0972 43.8006 28.5487 43.4629C28.8514 43.3922 29.1247 43.2293 29.3307 42.9967C29.5368 42.764 29.6655 42.4731 29.6991 42.1641L30.0175 39.2617C30.1216 38.3106 30.671 37.4691 31.4999 36.9902C32.3272 36.5123 33.3313 36.4574 34.2069 36.8418L36.8749 38.0156C37.1591 38.141 37.4752 38.1751 37.7795 38.1132C38.0839 38.0512 38.3615 37.8964 38.5741 37.6699C40.6466 35.4604 42.2372 32.783 43.1405 29.7969C43.2305 29.4997 43.226 29.1819 43.1277 28.8873C43.0294 28.5927 42.8421 28.3359 42.5917 28.1523L40.2265 26.4199C39.4541 25.8533 38.9999 24.9577 38.9999 24C38.9999 23.0423 39.4541 22.1467 40.2265 21.5801L42.5917 19.8477C42.8421 19.6641 43.0294 19.4073 43.1277 19.1127C43.226 18.8181 43.2305 18.5003 43.1405 18.2031C42.2372 15.217 40.6466 12.5396 38.5741 10.3301C38.3615 10.1036 38.0839 9.94877 37.7795 9.88684C37.4752 9.82492 37.1591 9.859 36.8749 9.98438L34.2069 11.1582C33.3313 11.5426 32.3272 11.4877 31.4999 11.0098C30.671 10.5309 30.1216 9.68936 30.0175 8.73828L29.6991 5.83594C29.6653 5.52755 29.5367 5.23724 29.331 5.00498C29.1253 4.77273 28.8527 4.60995 28.5507 4.53906C27.0985 4.20016 25.5768 4 23.9999 4ZM23.9999 7C24.9742 7 25.9098 7.17488 26.8476 7.33984L27.0351 9.06445C27.2429 10.9634 28.3468 12.6523 29.9999 13.6074C31.6541 14.5631 33.668 14.673 35.4159 13.9043L37.0019 13.207C38.2197 14.6694 39.1839 16.3212 39.8573 18.1309L38.4511 19.1621C36.9114 20.2915 35.9999 22.0897 35.9999 24C35.9999 25.9103 36.9114 27.7085 38.4511 28.8379L39.8573 29.8691C39.1839 31.6788 38.2197 33.3306 37.0019 34.793L35.4159 34.0957C33.668 33.327 31.6541 33.4369 29.9999 34.3926C28.3468 35.3477 27.2429 37.0366 27.0351 38.9355L26.8476 40.6602C25.9099 40.8247 24.9737 41 23.9999 41C23.0256 41 22.09 40.8251 21.1522 40.6602L20.9647 38.9355C20.7569 37.0366 19.653 35.3477 17.9999 34.3926C16.3457 33.4369 14.3318 33.327 12.5839 34.0957L10.9979 34.793C9.77988 33.3308 8.81585 31.679 8.14248 29.8691L9.54873 28.8379C11.0884 27.7085 11.9999 25.9103 11.9999 24C11.9999 22.0897 11.0876 20.2904 9.54873 19.1602L8.14248 18.1289C8.81624 16.3185 9.78135 14.6678 10.9999 13.2051L12.5839 13.9023C14.3318 14.6711 16.3457 14.5631 17.9999 13.6074C19.653 12.6523 20.7569 10.9634 20.9647 9.06445L21.1522 7.33984C22.0899 7.17534 23.0261 7 23.9999 7ZM23.9999 16C19.5994 16 15.9999 19.5995 15.9999 24C15.9999 28.4005 19.5994 32 23.9999 32C28.4004 32 31.9999 28.4005 31.9999 24C31.9999 19.5995 28.4004 16 23.9999 16ZM23.9999 19C26.7791 19 28.9999 21.2208 28.9999 24C28.9999 26.7792 26.7791 29 23.9999 29C21.2207 29 18.9999 26.7792 18.9999 24C18.9999 21.2208 21.2207 19 23.9999 19Z" fill="#0068D7"/>
</svg>
