<svg width="45" height="30" viewBox="0 0 45 30" fill="none" xmlns="http://www.w3.org/2000/svg">
<path d="M2.49988 2.79416e-05C2.30111 -0.00278313 2.10377 0.0339386 1.91931 0.108059C1.73486 0.18218 1.56698 0.292221 1.42543 0.431788C1.28387 0.571355 1.17147 0.737664 1.09475 0.921049C1.01802 1.10444 0.978516 1.30124 0.978516 1.50003C0.978516 1.69882 1.01802 1.89562 1.09475 2.07901C1.17147 2.26239 1.28387 2.4287 1.42543 2.56827C1.56698 2.70783 1.73486 2.81788 1.91931 2.892C2.10377 2.96612 2.30111 3.00284 2.49988 3.00003H17.4999C17.6986 3.00284 17.896 2.96612 18.0804 2.892C18.2649 2.81788 18.4328 2.70783 18.5743 2.56827C18.7159 2.4287 18.8283 2.26239 18.905 2.07901C18.9817 1.89562 19.0212 1.69882 19.0212 1.50003C19.0212 1.30124 18.9817 1.10444 18.905 0.921049C18.8283 0.737664 18.7159 0.571355 18.5743 0.431788C18.4328 0.292221 18.2649 0.18218 18.0804 0.108059C17.896 0.0339386 17.6986 -0.00278313 17.4999 2.79416e-05H2.49988ZM23.4999 2.79416e-05C23.3011 -0.00278313 23.1038 0.0339386 22.9193 0.108059C22.7349 0.18218 22.567 0.292221 22.4254 0.431788C22.2839 0.571355 22.1715 0.737664 22.0947 0.921049C22.018 1.10444 21.9785 1.30124 21.9785 1.50003C21.9785 1.69882 22.018 1.89562 22.0947 2.07901C22.1715 2.26239 22.2839 2.4287 22.4254 2.56827C22.567 2.70783 22.7349 2.81788 22.9193 2.892C23.1038 2.96612 23.3011 3.00284 23.4999 3.00003H26.4999C27.3464 3.00003 27.9999 3.65353 27.9999 4.50003V23H16.785C16.1256 20.7016 13.9996 19 11.4999 19C9.00014 19 6.87412 20.7016 6.21472 23H5.49988C4.65338 23 3.99988 22.3465 3.99988 21.5V19.5C4.00276 19.2993 3.96531 19.1 3.88974 18.9139C3.81418 18.7279 3.70204 18.559 3.55997 18.4171C3.4179 18.2752 3.24879 18.1633 3.06267 18.0879C2.87655 18.0126 2.6772 17.9754 2.47644 17.9785C2.07896 17.9848 1.70019 18.1485 1.42334 18.4338C1.14648 18.719 0.994177 19.1025 0.999879 19.5V21.5C0.999879 23.9675 3.03238 26 5.49988 26H6.21472C6.87412 28.2984 9.00014 30 11.4999 30C13.9996 30 16.1256 28.2984 16.785 26H29.2147C29.8741 28.2984 32.0001 30 34.4999 30C36.9996 30 39.1256 28.2984 39.785 26H40.4999C42.9674 26 44.9999 23.9675 44.9999 21.5V15.1367C44.9999 14.5053 44.8667 13.8851 44.6132 13.3125C44.6125 13.3119 44.6119 13.3112 44.6112 13.3106L41.662 6.67386V6.6719C40.9418 5.05036 39.3247 4.00003 37.5507 4.00003H30.9491C30.6942 1.76665 28.7965 2.79416e-05 26.4999 2.79416e-05H23.4999ZM2.49988 6.00003C2.30111 5.99722 2.10377 6.03394 1.91931 6.10806C1.73486 6.18218 1.56698 6.29222 1.42543 6.43179C1.28387 6.57136 1.17147 6.73766 1.09475 6.92105C1.01802 7.10443 0.978516 7.30124 0.978516 7.50003C0.978516 7.69882 1.01802 7.89562 1.09475 8.07901C1.17147 8.26239 1.28387 8.4287 1.42543 8.56827C1.56698 8.70783 1.73486 8.81787 1.91931 8.892C2.10377 8.96612 2.30111 9.00284 2.49988 9.00003H13.4999C13.6986 9.00284 13.896 8.96612 14.0804 8.892C14.2649 8.81787 14.4328 8.70783 14.5743 8.56827C14.7159 8.4287 14.8283 8.26239 14.905 8.07901C14.9817 7.89562 15.0212 7.69882 15.0212 7.50003C15.0212 7.30124 14.9817 7.10443 14.905 6.92105C14.8283 6.73766 14.7159 6.57136 14.5743 6.43179C14.4328 6.29222 14.2649 6.18218 14.0804 6.10806C13.896 6.03394 13.6986 5.99722 13.4999 6.00003H2.49988ZM30.9999 7.00003H37.5507C38.1481 7.00003 38.6777 7.3451 38.9198 7.89065L40.746 12H30.9999V7.00003ZM2.49988 12C2.30111 11.9972 2.10377 12.0339 1.91931 12.1081C1.73486 12.1822 1.56698 12.2922 1.42543 12.4318C1.28387 12.5714 1.17147 12.7377 1.09475 12.921C1.01802 13.1044 0.978516 13.3012 0.978516 13.5C0.978516 13.6988 1.01802 13.8956 1.09475 14.079C1.17147 14.2624 1.28387 14.4287 1.42543 14.5683C1.56698 14.7078 1.73486 14.8179 1.91931 14.892C2.10377 14.9661 2.30111 15.0028 2.49988 15H9.49988C9.69865 15.0028 9.89599 14.9661 10.0804 14.892C10.2649 14.8179 10.4328 14.7078 10.5743 14.5683C10.7159 14.4287 10.8283 14.2624 10.905 14.079C10.9817 13.8956 11.0212 13.6988 11.0212 13.5C11.0212 13.3012 10.9817 13.1044 10.905 12.921C10.8283 12.7377 10.7159 12.5714 10.5743 12.4318C10.4328 12.2922 10.2649 12.1822 10.0804 12.1081C9.89599 12.0339 9.69865 11.9972 9.49988 12H2.49988ZM30.9999 15H41.9862C41.9905 15.0456 41.9999 15.0913 41.9999 15.1367V21.5C41.9999 22.3465 41.3464 23 40.4999 23H39.785C39.1256 20.7016 36.9996 19 34.4999 19C33.1739 19 31.9535 19.4793 30.9999 20.2715V15ZM11.4999 22C12.8486 22 13.9144 23.0328 13.9862 24.3614C13.9776 24.4536 13.9776 24.5465 13.9862 24.6387C13.9144 25.9672 12.8486 27 11.4999 27C10.1511 27 9.0854 25.9672 9.01355 24.6387C9.02212 24.5465 9.02212 24.4536 9.01355 24.3614C9.0854 23.0328 10.1511 22 11.4999 22ZM34.4999 22C35.8963 22 36.9999 23.1036 36.9999 24.5C36.9999 25.8964 35.8963 27 34.4999 27C33.1035 27 31.9999 25.8964 31.9999 24.5C31.9999 23.1036 33.1035 22 34.4999 22Z" fill="#0068D7"/>
</svg>
