<svg width="48" height="48" viewBox="0 0 48 48" fill="none" xmlns="http://www.w3.org/2000/svg">
<path d="M24.8203 3.01958C15.0865 2.56138 7 10.3569 7 20.0001V24.5001V31.5001C7 34.3726 9.26582 36.6905 12.084 36.9161C12.3132 40.8385 15.5228 44.0001 19.5 44.0001H20.5137C20.9706 44.6032 21.687 45.0001 22.5 45.0001H25.5C26.878 45.0001 28 43.8791 28 42.5001C28 41.1211 26.878 40.0001 25.5 40.0001H22.5C21.687 40.0001 20.9706 40.3969 20.5137 41.0001H19.5C17.1743 41.0001 15.3561 39.2519 15.0996 37.0001H17.5C17.8978 37 18.2793 36.842 18.5606 36.5607C18.8419 36.2794 19 35.8979 19 35.5001V24.5001C19 24.1022 18.8419 23.7207 18.5606 23.4394C18.2793 23.1581 17.8978 23.0001 17.5 23.0001H10V20.0001C10 12.0252 16.6096 5.63588 24.6777 6.01568C32.1922 6.369 38 12.8601 38 20.4376V23.0001H30.5C30.1022 23.0001 29.7207 23.1581 29.4394 23.4394C29.1581 23.7207 29 24.1022 29 24.5001V35.5001C29 35.8979 29.1581 36.2794 29.4394 36.5607C29.7207 36.842 30.1022 37 30.5 37.0001H35.5C38.5198 37.0001 41 34.5198 41 31.5001V24.5001V20.4376C41 11.323 33.9799 3.45026 24.8203 3.01958ZM10 26.0001H16V34.0001H12.5C11.1018 34.0001 10 32.8983 10 31.5001V26.0001ZM32 26.0001H38V31.5001C38 32.8983 36.8982 34.0001 35.5 34.0001H32V26.0001Z" fill="#0068D7"/>
</svg>
