<svg width="48" height="48" viewBox="0 0 48 48" fill="none" xmlns="http://www.w3.org/2000/svg">
<path d="M4.49988 7.00003C4.30111 6.99722 4.10377 7.03394 3.91931 7.10806C3.73486 7.18218 3.56698 7.29222 3.42543 7.43179C3.28387 7.57135 3.17147 7.73766 3.09475 7.92105C3.01802 8.10443 2.97852 8.30124 2.97852 8.50003C2.97852 8.69882 3.01802 8.89562 3.09475 9.07901C3.17147 9.26239 3.28387 9.4287 3.42543 9.56827C3.56698 9.70783 3.73486 9.81788 3.91931 9.892C4.10377 9.96612 4.30111 10.0028 4.49988 10C6.44994 10 7.99988 11.55 7.99988 13.5V29.5C7.99988 34.7288 12.2711 39 17.4999 39H18.5018C18.2234 39.3713 18.0537 39.8128 18.012 40.275C17.9702 40.7373 18.0579 41.202 18.2653 41.6172C18.4727 42.0324 18.7916 42.3817 19.1863 42.6259C19.5809 42.8701 20.0358 42.9997 20.4999 43C20.964 42.9997 21.4188 42.8701 21.8135 42.6259C22.2082 42.3817 22.527 42.0324 22.7344 41.6172C22.9418 41.202 23.0296 40.7373 22.9878 40.275C22.946 39.8128 22.7764 39.3713 22.4979 39H35.5018C35.2234 39.3713 35.0537 39.8128 35.012 40.275C34.9702 40.7373 35.0579 41.202 35.2653 41.6172C35.4727 42.0324 35.7916 42.3817 36.1863 42.6259C36.5809 42.8701 37.0358 42.9997 37.4999 43C37.964 42.9997 38.4188 42.8701 38.8135 42.6259C39.2082 42.3817 39.527 42.0324 39.7344 41.6172C39.9418 41.202 40.0296 40.7373 39.9878 40.275C39.946 39.8128 39.7764 39.3713 39.4979 39H43.4999C43.6986 39.0028 43.896 38.9661 44.0804 38.892C44.2649 38.8179 44.4328 38.7078 44.5743 38.5683C44.7159 38.4287 44.8283 38.2624 44.905 38.079C44.9817 37.8956 45.0212 37.6988 45.0212 37.5C45.0212 37.3012 44.9817 37.1044 44.905 36.921C44.8283 36.7377 44.7159 36.5714 44.5743 36.4318C44.4328 36.2922 44.2649 36.1822 44.0804 36.1081C43.896 36.0339 43.6986 35.9972 43.4999 36H17.4999C13.8927 36 10.9999 33.1073 10.9999 29.5V13.5C10.9999 9.92809 8.07182 7.00003 4.49988 7.00003ZM15.4999 10C15.1021 10.0001 14.7206 10.1581 14.4393 10.4394C14.158 10.7207 13.9999 11.1022 13.9999 11.5V28.5C13.9999 30.9675 16.0324 33 18.4999 33H37.4999C39.9674 33 41.9999 30.9675 41.9999 28.5V11.5C41.9998 11.1022 41.8418 10.7207 41.5605 10.4394C41.2792 10.1581 40.8977 10.0001 40.4999 10H15.4999ZM16.9999 13H38.9999V28.5C38.9999 29.3465 38.3464 30 37.4999 30H18.4999C17.6534 30 16.9999 29.3465 16.9999 28.5V13ZM24.4999 16C24.3011 15.9972 24.1038 16.0339 23.9193 16.1081C23.7349 16.1822 23.567 16.2922 23.4254 16.4318C23.2839 16.5714 23.1715 16.7377 23.0947 16.921C23.018 17.1044 22.9785 17.3012 22.9785 17.5C22.9785 17.6988 23.018 17.8956 23.0947 18.079C23.1715 18.2624 23.2839 18.4287 23.4254 18.5683C23.567 18.7078 23.7349 18.8179 23.9193 18.892C24.1038 18.9661 24.3011 19.0028 24.4999 19H31.4999C31.6986 19.0028 31.896 18.9661 32.0804 18.892C32.2649 18.8179 32.4328 18.7078 32.5743 18.5683C32.7159 18.4287 32.8283 18.2624 32.905 18.079C32.9817 17.8956 33.0212 17.6988 33.0212 17.5C33.0212 17.3012 32.9817 17.1044 32.905 16.921C32.8283 16.7377 32.7159 16.5714 32.5743 16.4318C32.4328 16.2922 32.2649 16.1822 32.0804 16.1081C31.896 16.0339 31.6986 15.9972 31.4999 16H24.4999Z" fill="#0068D7"/>
</svg>
