<svg width="48" height="48" viewBox="0 0 48 48" fill="none" xmlns="http://www.w3.org/2000/svg">
<path d="M17.8047 3.99028C17.1726 3.96995 16.5171 4.06094 15.8535 4.33598C14.0838 5.06871 13.2848 6.67789 12.664 8.01958C12.0433 9.36126 11.5065 10.5831 11.0449 11.045H11.0429C10.5336 11.5549 9.30982 12.1035 7.97848 12.7247C6.64714 13.3458 5.05827 14.1114 4.3359 15.8555C3.61381 17.5998 4.19694 19.2659 4.69918 20.6465C5.20143 22.0271 5.678 23.2793 5.6777 24C5.67742 24.6533 5.1954 25.8974 4.68551 27.2852C4.17562 28.673 3.60244 30.377 4.3359 32.1465C5.06862 33.9162 6.67781 34.7152 8.01949 35.336C9.36118 35.9567 10.5811 36.4935 11.0429 36.9551V36.9571H11.0449C11.5548 37.4664 12.1015 38.6902 12.7226 40.0215C13.3437 41.3529 14.1093 42.9417 15.8535 43.6641C17.5977 44.3862 19.2639 43.8031 20.6445 43.3008C22.0251 42.7986 23.2792 42.322 24 42.3223C24.6533 42.3226 25.8973 42.8046 27.2851 43.3145C28.6729 43.8244 30.3749 44.3976 32.1445 43.6641C33.9142 42.9314 34.7132 41.3222 35.3339 39.9805C35.9547 38.6388 36.4934 37.419 36.955 36.9571V36.9551C37.4644 36.4452 38.6881 35.8985 40.0195 35.2774C41.3508 34.6563 42.9417 33.8907 43.664 32.1465C44.3861 30.4023 43.803 28.7361 43.3007 27.3555C42.7985 25.9749 42.32 24.7208 42.3203 24C42.3206 23.3468 42.8045 22.1027 43.3144 20.7149C43.8243 19.3271 44.3975 17.6251 43.664 15.8555C42.9313 14.0859 41.3221 13.2868 39.9804 12.6661C38.6387 12.0453 37.4169 11.5066 36.955 11.045C36.4451 10.5356 35.8965 9.31186 35.2754 7.98051C34.6542 6.64917 33.8886 5.05835 32.1445 4.33598C30.4002 3.61389 28.7341 4.19702 27.3535 4.69926C25.9729 5.20151 24.7207 5.68003 24 5.67973C23.3467 5.67945 22.1026 5.19548 20.7148 4.68559C20.0209 4.43065 19.2482 4.16031 18.4277 4.04497C18.2226 4.01613 18.0153 3.99705 17.8047 3.99028ZM17.4668 7.01372C18.0025 6.98739 18.7491 7.1601 19.6797 7.502C20.9204 7.95786 22.3153 8.67901 23.998 8.67973C25.6982 8.68043 27.1295 7.97213 28.3789 7.51762C29.6273 7.06345 30.537 6.91819 30.9961 7.10747C31.4539 7.2971 31.9945 8.04319 32.5566 9.24809C33.1185 10.4526 33.6317 11.9646 34.8339 13.1661C36.0241 14.3555 37.5211 14.8337 38.7207 15.3887C39.9202 15.9437 40.6763 16.4797 40.8925 17.002V17.004C41.1091 17.5264 40.9539 18.441 40.498 19.6817C40.0422 20.9224 39.321 22.3173 39.3203 24C39.3196 25.7003 40.0279 27.1315 40.4824 28.3809C40.9369 29.6303 41.0824 30.5394 40.8925 30.9981C40.7029 31.4559 39.9568 31.9965 38.7519 32.5586C37.5474 33.1206 36.0354 33.6338 34.8339 34.836C33.6445 36.0261 33.1663 37.5212 32.6113 38.7207C32.0563 39.9203 31.5204 40.6763 30.998 40.8926H30.9961C30.4737 41.1091 29.559 40.9559 28.3183 40.5C27.0776 40.0442 25.6827 39.323 24 39.3223C22.2997 39.3216 20.8685 40.028 19.6191 40.4825C18.3697 40.937 17.4606 41.0825 17.0019 40.8926C16.5441 40.703 16.0035 39.9569 15.4414 38.752C14.8792 37.5471 14.3671 36.0357 13.164 34.834C11.9739 33.6446 10.4788 33.1683 9.27926 32.6133C8.07969 32.0583 7.32366 31.5204 7.10739 30.9981C6.89085 30.4757 7.04411 29.5611 7.49996 28.3204C7.95582 27.0796 8.67698 25.6847 8.6777 24.002C8.6784 22.3018 7.97205 20.8705 7.51754 19.6211C7.06337 18.3727 6.91811 17.463 7.10739 17.004C7.29702 16.5461 8.0431 16.0055 9.24801 15.4434C10.4529 14.8813 11.9643 14.3691 13.166 13.1661C14.3554 11.9759 14.8317 10.4789 15.3867 9.27934C15.9417 8.07978 16.4796 7.32374 17.0019 7.10747C17.1325 7.05333 17.2882 7.02249 17.4668 7.01372ZM31.4707 14.9864C31.0811 14.9977 30.7113 15.1602 30.4394 15.4395L15.4394 30.4395C15.2955 30.5777 15.1805 30.7433 15.1014 30.9265C15.0222 31.1097 14.9804 31.3068 14.9783 31.5064C14.9763 31.7059 15.0141 31.9039 15.0895 32.0886C15.165 32.2734 15.2765 32.4413 15.4176 32.5824C15.5587 32.7235 15.7266 32.835 15.9114 32.9105C16.0961 32.9859 16.2941 33.0237 16.4936 33.0217C16.6932 33.0197 16.8904 32.9778 17.0735 32.8987C17.2567 32.8195 17.4223 32.7045 17.5605 32.5606L32.5605 17.5606C32.7769 17.3498 32.9246 17.0787 32.9844 16.7826C33.0441 16.4865 33.0131 16.1792 32.8953 15.901C32.7775 15.6229 32.5785 15.3867 32.3243 15.2235C32.0701 15.0603 31.7726 14.9777 31.4707 14.9864ZM18.5 15C17.5717 15 16.6815 15.3688 16.0251 16.0252C15.3687 16.6815 15 17.5718 15 18.5C15 19.4283 15.3687 20.3185 16.0251 20.9749C16.6815 21.6313 17.5717 22 18.5 22C19.4282 22 20.3185 21.6313 20.9748 20.9749C21.6312 20.3185 22 19.4283 22 18.5C22 17.5718 21.6312 16.6815 20.9748 16.0252C20.3185 15.3688 19.4282 15 18.5 15ZM29.5 26C28.5717 26 27.6815 26.3688 27.0251 27.0252C26.3687 27.6815 26 28.5718 26 29.5C26 30.4283 26.3687 31.3185 27.0251 31.9749C27.6815 32.6313 28.5717 33 29.5 33C30.4282 33 31.3185 32.6313 31.9748 31.9749C32.6312 31.3185 33 30.4283 33 29.5C33 28.5718 32.6312 27.6815 31.9748 27.0252C31.3185 26.3688 30.4282 26 29.5 26Z" fill="#0068D7"/>
</svg>
