<svg width="20" height="20" viewBox="0 0 20 20" fill="none" xmlns="http://www.w3.org/2000/svg">
<path d="M9.99958 0.420319C9.91258 0.420319 9.82592 0.447912 9.75192 0.503912L0.551924 7.68438C0.379924 7.82038 0.347955 8.07166 0.483955 8.24766C0.619955 8.41966 0.871236 8.45163 1.04724 8.31563L1.59958 7.88438V18.4C1.59958 18.62 1.77958 18.8 1.99958 18.8H7.59958V11.6H12.3996V18.8H17.9996C18.2196 18.8 18.3996 18.62 18.3996 18.4V7.88438L18.9519 8.31563C19.0279 8.37163 19.1116 8.40001 19.1996 8.40001C19.3196 8.40001 19.4352 8.34766 19.5152 8.24766C19.6512 8.07166 19.6192 7.82038 19.4472 7.68438L10.2472 0.503912C10.1732 0.447912 10.0866 0.420319 9.99958 0.420319ZM13.9996 2.00001V2.42032L16.3996 4.29219V2.00001H13.9996Z" fill="#2F69FF"/>
</svg>
