<svg width="22" height="22" viewBox="0 0 22 22" fill="none" xmlns="http://www.w3.org/2000/svg">
<path d="M7.56234 2.29173C4.65943 2.29173 2.2915 4.65966 2.2915 7.56257V14.4376C2.2915 17.3401 4.65935 19.7084 7.56234 19.7084H14.4373C17.3399 19.7084 19.7082 17.3402 19.7082 14.4376V7.56257C19.7082 4.65958 17.3399 2.29173 14.4373 2.29173H7.56234ZM7.56234 3.66673H14.4373C16.5967 3.66673 18.3332 5.4028 18.3332 7.56257V14.4376C18.3332 16.5968 16.5966 18.3334 14.4373 18.3334H7.56234C5.40257 18.3334 3.6665 16.5969 3.6665 14.4376V7.56257C3.6665 5.40272 5.40249 3.66673 7.56234 3.66673ZM15.5832 5.50007C15.0767 5.50007 14.6665 5.91027 14.6665 6.41673C14.6665 6.92319 15.0767 7.3334 15.5832 7.3334C16.0896 7.3334 16.4998 6.92319 16.4998 6.41673C16.4998 5.91027 16.0896 5.50007 15.5832 5.50007ZM10.9998 6.41673C8.47679 6.41673 6.4165 8.47702 6.4165 11.0001C6.4165 13.5231 8.47679 15.5834 10.9998 15.5834C13.5229 15.5834 15.5832 13.5231 15.5832 11.0001C15.5832 8.47702 13.5229 6.41673 10.9998 6.41673ZM10.9998 7.79173C12.7796 7.79173 14.2082 9.22028 14.2082 11.0001C14.2082 12.7799 12.7796 14.2084 10.9998 14.2084C9.22005 14.2084 7.7915 12.7799 7.7915 11.0001C7.7915 9.22028 9.22005 7.79173 10.9998 7.79173Z" fill="white"/>
</svg>
