<svg width="26" height="26" viewBox="0 0 26 26" fill="none" xmlns="http://www.w3.org/2000/svg">
<path d="M8.98915 2.84028C5.60243 2.84028 2.83984 5.60286 2.83984 8.98958V17.0104C2.83984 20.3967 5.60233 23.1597 8.98915 23.1597H17.01C20.3963 23.1597 23.1593 20.3968 23.1593 17.0104V8.98958C23.1593 5.60276 20.3962 2.84028 17.01 2.84028H8.98915ZM8.98915 4.44444H17.01C19.5292 4.44444 21.5551 6.46986 21.5551 8.98958V17.0104C21.5551 19.5295 19.5291 21.5556 17.01 21.5556H8.98915C6.46943 21.5556 4.44401 19.5296 4.44401 17.0104V8.98958C4.44401 6.46976 6.46933 4.44444 8.98915 4.44444ZM18.3468 6.58333C17.7559 6.58333 17.2773 7.06191 17.2773 7.65278C17.2773 8.24365 17.7559 8.72222 18.3468 8.72222C18.9377 8.72222 19.4162 8.24365 19.4162 7.65278C19.4162 7.06191 18.9377 6.58333 18.3468 6.58333ZM12.9996 7.65278C10.056 7.65278 7.65234 10.0564 7.65234 13C7.65234 15.9435 10.056 18.3472 12.9996 18.3472C15.9431 18.3472 18.3468 15.9435 18.3468 13C18.3468 10.0564 15.9431 7.65278 12.9996 7.65278ZM12.9996 9.25694C15.076 9.25694 16.7426 10.9236 16.7426 13C16.7426 15.0764 15.076 16.7431 12.9996 16.7431C10.9231 16.7431 9.25651 15.0764 9.25651 13C9.25651 10.9236 10.9231 9.25694 12.9996 9.25694Z" fill="#304F6F"/>
</svg>
