<svg width="26" height="26" viewBox="0 0 26 26" fill="none" xmlns="http://www.w3.org/2000/svg">
<path d="M3.56742 12.2341L11.1508 4.65078C11.5738 4.22774 12.2595 4.22774 12.6826 4.65078C13.1056 5.07382 13.1056 5.75957 12.6826 6.18261L6.9485 11.9167H21.6667C22.2647 11.9167 22.75 12.402 22.75 13C22.75 13.598 22.2647 14.0834 21.6667 14.0834H6.9485L12.6826 19.8174C13.1056 20.2405 13.1056 20.9262 12.6826 21.3493C12.4708 21.5611 12.194 21.6667 11.9167 21.6667C11.6393 21.6667 11.3625 21.5611 11.1508 21.3493L3.56742 13.7659C3.14437 13.3429 3.14437 12.6572 3.56742 12.2341Z" fill="#304F6F"/>
</svg>
