<svg width="22" height="22" viewBox="0 0 22 22" fill="none" xmlns="http://www.w3.org/2000/svg">
<path d="M11.0007 1.83333C6.70572 1.83333 3.20898 5.33007 3.20898 9.62499C3.20898 11.5531 3.91633 13.3214 5.07812 14.681L5.08171 14.6846L5.08439 14.6881C5.08439 14.6881 8.39903 18.4704 9.5791 19.5964C10.3693 20.3498 11.6311 20.3498 12.4213 19.5964C13.7664 18.3135 16.9178 14.6864 16.9178 14.6864L16.9196 14.6837L16.9223 14.681C18.0851 13.3214 18.7923 11.5531 18.7923 9.62499C18.7923 5.33007 15.2956 1.83333 11.0007 1.83333ZM11.0007 3.20833C14.5524 3.20833 17.4173 6.07325 17.4173 9.62499C17.4173 11.2178 16.8369 12.6649 15.8767 13.7876C15.8705 13.7947 12.6461 17.4824 11.4724 18.6019C11.2002 18.8614 10.8002 18.8614 10.528 18.6019C9.54708 17.6659 6.13365 13.7989 6.1237 13.7876L6.1228 13.7867C5.16393 12.6641 4.58398 11.2174 4.58398 9.62499C4.58398 6.07325 7.44891 3.20833 11.0007 3.20833ZM11.0007 6.87499C10.1413 6.87499 9.40969 7.22201 8.93994 7.75048C8.47019 8.27895 8.25065 8.95659 8.25065 9.62499C8.25065 10.2934 8.47019 10.971 8.93994 11.4995C9.40969 12.028 10.1413 12.375 11.0007 12.375C11.86 12.375 12.5916 12.028 13.0614 11.4995C13.5311 10.971 13.7507 10.2934 13.7507 9.62499C13.7507 8.95659 13.5311 8.27895 13.0614 7.75048C12.5916 7.22201 11.86 6.87499 11.0007 6.87499ZM11.0007 8.24999C11.5163 8.24999 11.8159 8.4186 12.0337 8.66357C12.2514 8.90854 12.3757 9.26215 12.3757 9.62499C12.3757 9.98784 12.2514 10.3415 12.0337 10.5864C11.8159 10.8314 11.5163 11 11.0007 11C10.485 11 10.1854 10.8314 9.96761 10.5864C9.74986 10.3415 9.62565 9.98784 9.62565 9.62499C9.62565 9.26215 9.74986 8.90854 9.96761 8.66357C10.1854 8.4186 10.485 8.24999 11.0007 8.24999Z" fill="#304F6F"/>
</svg>
