<svg width="237" height="30" viewBox="0 0 237 30" fill="none" xmlns="http://www.w3.org/2000/svg">
<path d="M0 0.668893H13.9287C16.7092 0.668893 18.9782 1.32467 20.7357 2.63622C22.4931 3.94777 23.3719 5.94133 23.3719 8.6169C23.3719 10.2432 22.9784 11.6728 22.1915 12.9057C21.4045 14.1123 20.316 14.9779 18.9257 15.5026C21.339 16.0009 22.7161 18.1781 23.0571 22.0341C23.0571 22.1652 23.0833 22.5718 23.1358 23.2538C23.1883 23.9358 23.2407 24.4867 23.2932 24.9064C23.3456 25.2999 23.4112 25.7851 23.4899 26.3622C23.5686 26.9393 23.6866 27.4246 23.844 27.818C24.0014 28.2115 24.185 28.5 24.3949 28.6837H18.0207C17.8109 28.264 17.6535 27.7393 17.5486 27.1098C17.4437 26.454 17.3518 25.6277 17.2732 24.631C17.1945 23.608 17.1551 23.044 17.1551 22.9391C16.9453 20.9717 16.4469 19.6077 15.6599 18.847C14.8992 18.0863 13.5352 17.706 11.5679 17.706H6.09872V28.6837H0V0.668893ZM6.09872 5.50852V13.2598H11.922C13.627 13.2598 14.9517 12.9975 15.896 12.4729C16.8666 11.922 17.3518 10.8597 17.3518 9.2858C17.3518 7.81686 16.8797 6.82008 15.9354 6.29546C15.0173 5.77083 13.7713 5.50852 12.1974 5.50852H6.09872Z" fill="white"/>
<path d="M49.1706 0.668893V5.70526H34.2583V11.804H47.9509V16.6436H34.2583V23.5293H49.4461V28.6837H28.1596V0.668893H49.1706Z" fill="white"/>
<path d="M53.6734 28.6837V0.668893H62.4477L68.9792 19.9094L75.3533 0.668893H83.9309V28.6837H78.1469V8.77429L71.2613 28.6837H66.5004L59.536 8.97102V28.6837H53.6734Z" fill="white"/>
<path d="M86.3399 0.668893H92.7534L99.0489 20.3422L105.423 0.668893H111.797L102.472 28.6837H95.5077L86.3399 0.668893Z" fill="white"/>
<path d="M126.276 0.629544L136.939 28.6837H130.486L128.283 22.4276H117.856L115.574 28.6837H109.278L119.941 0.629544H126.276ZM126.788 17.942L123.089 7.5152L119.351 17.942H126.788Z" fill="white"/>
<path d="M164.307 17.8634C163.993 21.3783 162.76 24.1719 160.609 26.2442C158.458 28.3164 155.507 29.3526 151.756 29.3526C147.69 29.3526 144.411 28.0148 141.919 25.3392C139.453 22.6374 138.221 19.07 138.221 14.6369C138.221 10.44 139.467 6.95123 141.959 4.17074C144.477 1.39025 147.821 0 151.992 0C155.323 0 158.117 0.944319 160.373 2.83296C162.629 4.72159 163.875 7.12173 164.111 10.0334H158.091C157.776 8.48575 157.068 7.29223 155.966 6.45284C154.89 5.58722 153.526 5.1544 151.874 5.1544C150.169 5.1544 148.726 5.63968 147.546 6.61023C146.392 7.55455 145.578 8.72183 145.106 10.1121C144.634 11.5023 144.398 13.0237 144.398 14.6763C144.398 17.5617 145.067 19.87 146.405 21.6013C147.742 23.3063 149.539 24.1588 151.795 24.1588C155.546 24.1588 157.684 22.0603 158.209 17.8634H164.307Z" fill="white"/>
<path d="M184.896 0.668884H198.825C201.605 0.668884 203.874 1.32466 205.632 2.63621C207.389 3.94777 208.268 5.94133 208.268 8.61689C208.268 10.2432 207.875 11.6728 207.088 12.9057C206.301 14.1123 205.212 14.9779 203.822 15.5025C206.235 16.0009 207.612 18.1781 207.953 22.0341C207.953 22.1652 207.98 22.5718 208.032 23.2538C208.084 23.9358 208.137 24.4867 208.189 24.9064C208.242 25.2999 208.307 25.7851 208.386 26.3622C208.465 26.9393 208.583 27.4246 208.74 27.818C208.898 28.2115 209.081 28.5 209.291 28.6837H202.917C202.707 28.264 202.55 27.7393 202.445 27.1098C202.34 26.454 202.248 25.6277 202.169 24.631C202.091 23.6079 202.051 23.044 202.051 22.9391C201.842 20.9717 201.343 19.6077 200.556 18.847C199.795 18.0863 198.431 17.706 196.464 17.706H190.995V28.6837H184.896V0.668884ZM190.995 5.50851V13.2598H196.818C198.523 13.2598 199.848 12.9975 200.792 12.4729C201.763 11.922 202.248 10.8597 202.248 9.28579C202.248 7.81685 201.776 6.82007 200.832 6.29545C199.914 5.77082 198.668 5.50851 197.094 5.50851H190.995Z" fill="white"/>
<path d="M236.9 0.668884V17.5092C236.9 21.5226 235.929 24.4867 233.988 26.4016C232.073 28.2902 229.07 29.2345 224.978 29.2345C220.833 29.2345 217.777 28.2771 215.81 26.3622C213.869 24.4211 212.898 21.4439 212.898 17.4305V0.668884H219.036V17.4305C219.036 19.7126 219.469 21.4045 220.335 22.5062C221.201 23.6079 222.774 24.1588 225.057 24.1588C227.26 24.1588 228.755 23.6079 229.542 22.5062C230.355 21.4045 230.762 19.7126 230.762 17.4305V0.668884H236.9Z" fill="white"/>
<circle cx="174" cy="24" r="5" fill="#0068D7"/>
</svg>
