<svg width="58" height="58" viewBox="0 0 58 58" fill="none" xmlns="http://www.w3.org/2000/svg">
<path d="M13.5337 5.8C11.3973 5.8 9.66699 7.53034 9.66699 9.66667V50.2667C9.66699 52.403 11.3973 54.1333 13.5337 54.1333H44.467C46.6033 54.1333 48.3337 52.403 48.3337 50.2667V20.3C48.3337 19.7877 48.1307 19.2965 47.7673 18.9331L35.2006 6.36641C34.8371 6.00294 34.346 5.8 33.8337 5.8H13.5337ZM32.867 9.48164L44.652 21.2667H34.8003C33.7331 21.2667 32.867 20.4005 32.867 19.3333V9.48164ZM18.4992 29.3285C19.0927 29.3285 19.677 29.3845 20.2512 29.4947C20.8254 29.6049 21.3376 29.8175 21.7881 30.1404C22.2386 30.4632 22.6084 30.9177 22.8907 31.5035C23.173 32.0913 23.3136 32.856 23.3136 33.7956C23.3155 34.6462 23.1965 35.3657 22.9587 35.9592C22.7189 36.5528 22.4016 37.0361 22.0033 37.4092C21.6031 37.7824 21.1395 38.0529 20.6175 38.2211C20.0936 38.3893 19.5581 38.4741 19.0051 38.4741H18.7521C18.6342 38.4741 18.5135 38.4705 18.3859 38.4628C18.2583 38.455 18.1301 38.4499 18.0083 38.4363C17.8865 38.4247 17.7999 38.4083 17.7477 38.3948V43.0544H15.3122V29.657C15.7762 29.5546 16.2866 29.4734 16.8415 29.4154C17.3944 29.3574 17.9462 29.3285 18.4992 29.3285ZM28.3206 29.3285C29.3898 29.3285 30.2825 29.4945 30.9979 29.8232C31.7132 30.1518 32.2886 30.6134 32.7197 31.2128C33.1528 31.8121 33.4556 32.5317 33.6373 33.3689C33.8171 34.206 33.9092 35.144 33.9092 36.1745C33.9092 37.116 33.8226 38.0141 33.6486 38.8706C33.4746 39.727 33.1699 40.4809 32.7311 41.1324C32.2903 41.784 31.697 42.3015 30.9488 42.6882C30.2006 43.0748 29.2629 43.2697 28.1281 43.2697C27.9618 43.2697 27.7326 43.2605 27.4484 43.247C27.1661 43.2335 26.8703 43.221 26.561 43.2017C26.2517 43.1824 25.9541 43.1606 25.6699 43.1413C25.3876 43.1219 25.1675 43.1004 25.0128 43.0733V29.5211C25.2448 29.4824 25.5082 29.4536 25.7982 29.4342C26.0863 29.4149 26.3821 29.3969 26.6856 29.3776C26.9872 29.3583 27.2832 29.3456 27.5654 29.3398C27.8496 29.334 28.1002 29.3285 28.3206 29.3285ZM35.8425 29.5211H42.6092V31.7641H38.2818V35.2833H42.2618V37.5263H38.2818V43.0544H35.8425V29.5211ZM18.7333 31.4922C18.335 31.4922 18.0068 31.5266 17.7477 31.5904V36.2122C17.8251 36.2393 17.9693 36.2609 18.182 36.2802C18.3946 36.2995 18.5427 36.3066 18.62 36.3066C18.9023 36.3066 19.1728 36.2707 19.4318 36.1934C19.689 36.116 19.9181 35.9844 20.1153 35.7969C20.3164 35.6093 20.477 35.3515 20.5911 35.0228C20.709 34.6941 20.7648 34.2794 20.7648 33.7767C20.7648 33.3514 20.7088 32.9888 20.5986 32.693C20.4884 32.3972 20.3424 32.1609 20.1568 31.9869C19.9693 31.8129 19.751 31.6866 19.5074 31.6092C19.2618 31.5319 19.0039 31.4922 18.7333 31.4922ZM28.5736 31.5715C28.3687 31.5715 28.1595 31.5751 27.9468 31.5828C27.7361 31.5886 27.5681 31.603 27.4521 31.6281V40.9474C27.4927 40.959 27.5594 40.9718 27.6561 40.9776C27.7527 40.9834 27.8574 40.9907 27.9657 40.9965C28.074 41.0023 28.1749 41.0096 28.2715 41.0154C28.3682 41.0212 28.4368 41.0267 28.4755 41.0267C29.0555 41.0267 29.5315 40.8895 29.9066 40.6189C30.2778 40.3482 30.5757 39.9856 30.7864 39.5352C30.9991 39.0847 31.1451 38.5652 31.2282 37.9794C31.3113 37.3936 31.3566 36.7767 31.3566 36.1329C31.3566 35.5394 31.3186 34.9697 31.2471 34.4148C31.1813 33.8619 31.0441 33.3731 30.843 32.9535C30.642 32.5359 30.3626 32.2004 29.9972 31.9491C29.6299 31.6978 29.1517 31.5715 28.5736 31.5715Z" fill="#0068D7"/>
</svg>
