<svg width="22" height="22" viewBox="0 0 22 22" fill="none" xmlns="http://www.w3.org/2000/svg">
<path d="M11.8988 0.907686C11.6606 0.914782 11.4346 1.01431 11.2686 1.18519L9.51668 2.93706C9.40381 3.02281 9.31236 3.13356 9.24951 3.26062C9.18666 3.38767 9.15413 3.52757 9.15448 3.66932C9.15483 3.81107 9.18804 3.95081 9.25151 4.07755C9.31498 4.2043 9.40697 4.3146 9.52026 4.39979L11.2686 6.14808C11.353 6.23606 11.4542 6.3063 11.5661 6.35468C11.6781 6.40307 11.7986 6.42863 11.9205 6.42988C12.0425 6.43112 12.1635 6.40801 12.2764 6.36191C12.3893 6.31582 12.4919 6.24765 12.5781 6.16141C12.6643 6.07517 12.7325 5.97259 12.7786 5.85968C12.8247 5.74677 12.8478 5.62579 12.8466 5.50384C12.8453 5.38188 12.8198 5.2614 12.7714 5.14945C12.723 5.0375 12.6528 4.93633 12.5648 4.85186L12.4708 4.75787C15.3109 5.42026 17.4167 7.95238 17.4167 11C17.4167 13.0248 16.4749 14.8073 15.0086 15.987C14.8192 16.1395 14.698 16.3609 14.6718 16.6026C14.6589 16.7223 14.6696 16.8434 14.7034 16.959C14.7373 17.0745 14.7935 17.1823 14.869 17.2761C14.9444 17.3699 15.0377 17.4479 15.1433 17.5057C15.2489 17.5635 15.3649 17.5999 15.4846 17.6129C15.7263 17.6391 15.9686 17.5682 16.158 17.4157C18.0321 15.9078 19.25 13.596 19.25 11C19.25 6.86245 16.1777 3.43199 12.1986 2.84755L12.5648 2.48142C12.6972 2.35266 12.7877 2.18689 12.8243 2.00583C12.861 1.82477 12.842 1.63687 12.7701 1.46675C12.6981 1.29663 12.5763 1.15222 12.4209 1.05246C12.2654 0.952705 12.0834 0.902241 11.8988 0.907686ZM6.40682 4.37383C6.2002 4.37828 6.00115 4.45241 5.84196 4.5842C3.96785 6.09213 2.75 8.4039 2.75 11C2.75 15.1375 5.82234 18.5679 9.80135 19.1524L9.43522 19.5185C9.34724 19.603 9.27701 19.7042 9.22862 19.8161C9.18023 19.9281 9.15467 20.0485 9.15343 20.1705C9.15219 20.2925 9.17529 20.4134 9.22139 20.5263C9.26749 20.6393 9.33565 20.7418 9.42189 20.8281C9.50813 20.9143 9.61071 20.9825 9.72363 21.0286C9.83654 21.0747 9.95752 21.0978 10.0795 21.0965C10.2014 21.0953 10.3219 21.0697 10.4339 21.0214C10.5458 20.973 10.647 20.9027 10.7314 20.8147L12.4833 19.0629C12.5962 18.9771 12.6876 18.8664 12.7505 18.7393C12.8133 18.6123 12.8459 18.4724 12.8455 18.3306C12.8452 18.1889 12.812 18.0491 12.7485 17.9224C12.685 17.7956 12.593 17.6853 12.4797 17.6001L10.7314 15.8519C10.6459 15.7639 10.5436 15.6941 10.4306 15.6464C10.3176 15.5987 10.1961 15.5742 10.0735 15.5744C9.89121 15.5746 9.71313 15.6291 9.56201 15.7311C9.41089 15.833 9.29358 15.9776 9.22508 16.1466C9.15657 16.3155 9.13997 16.501 9.1774 16.6794C9.21483 16.8578 9.3046 17.021 9.43522 17.1481L9.52922 17.2421C6.68912 16.5797 4.58333 14.0476 4.58333 11C4.58333 8.97513 5.52515 7.19265 6.99137 6.01291C7.14319 5.89436 7.2538 5.731 7.30752 5.54602C7.36123 5.36104 7.35532 5.16384 7.29062 4.98241C7.22591 4.80099 7.10571 4.64455 6.94706 4.53531C6.78842 4.42606 6.59939 4.36957 6.40682 4.37383Z" fill="white"/>
</svg>
