<svg width="52" height="423" viewBox="0 0 52 423" fill="none" xmlns="http://www.w3.org/2000/svg">
<g opacity="0.2">
<path d="M1.185 423L1.185 398.338C1.185 393.414 2.34675 389.397 4.67025 386.285C6.99375 383.173 10.5255 381.617 15.2654 381.617C18.1466 381.617 20.6792 382.314 22.8633 383.707C25.0009 385.101 26.5344 387.028 27.4638 389.49C28.3467 385.217 32.2038 382.779 39.0349 382.175C39.2672 382.175 39.9875 382.128 41.1957 382.035C42.4039 381.943 43.3798 381.85 44.1233 381.757C44.8204 381.664 45.6801 381.548 46.7024 381.408C47.7248 381.269 48.5845 381.06 49.2815 380.781C49.9786 380.503 50.4897 380.178 50.815 379.806V391.092C50.0715 391.464 49.1421 391.742 48.0268 391.928C46.8651 392.114 45.4013 392.277 43.6354 392.416C41.8231 392.555 40.824 392.625 40.6381 392.625C37.1528 392.996 34.7364 393.879 33.3888 395.272C32.0411 396.619 31.3673 399.034 31.3673 402.518V412.202H50.815V423H1.185ZM9.75872 412.202H23.4906V401.891C23.4906 398.872 23.0259 396.526 22.0965 394.854C21.1207 393.136 19.2386 392.277 16.4504 392.277C13.8481 392.277 12.0822 393.113 11.1528 394.785C10.2234 396.41 9.75872 398.616 9.75872 401.403L9.75872 412.202Z" fill="white"/>
<path d="M1.185 335.938H10.1072L10.1072 362.342H20.9115V338.097H29.4853L29.4853 362.342H41.6837V335.45H50.815L50.815 373.14L1.185 373.14L1.185 335.938Z" fill="white"/>
<path d="M50.815 327.965H1.185L1.18499 312.429L35.2708 300.864L1.18499 289.578L1.18499 274.391H50.815L50.815 284.632H15.5442L50.815 296.824V305.253L15.8928 317.585H50.815V327.965Z" fill="white"/>
<path d="M1.18499 270.125L1.18499 258.769L36.0375 247.622L1.18499 236.336L1.18499 225.05L50.815 241.561V253.893L1.18499 270.125Z" fill="white"/>
<path d="M1.11528 199.413L50.815 180.534V191.959L39.7319 195.86L39.7319 214.322L50.815 218.363V229.51L1.11528 210.63L1.11528 199.413ZM31.7855 198.508L13.3137 205.057L31.7855 211.675V198.508Z" fill="white"/>
<path d="M31.6461 132.075C37.8731 132.632 42.8222 134.815 46.4933 138.623C50.1644 142.432 52 147.657 52 154.299C52 161.498 49.63 167.303 44.8901 171.716C40.1037 176.081 33.7837 178.264 25.9303 178.264C18.4951 178.264 12.3146 176.058 7.38874 171.646C2.46291 167.187 3.22972e-07 161.266 0 153.881C-2.57971e-07 147.982 1.67292 143.036 5.01877 139.041C8.36461 135.047 12.6166 132.841 17.7748 132.423V143.082C15.0331 143.64 12.9187 144.894 11.4316 146.844C9.89812 148.749 9.13136 151.164 9.13137 154.09C9.13137 157.109 9.99106 159.663 11.7105 161.753C13.3834 163.797 15.4513 165.237 17.9142 166.073C20.3771 166.909 23.0724 167.327 26 167.327C31.1117 167.327 35.2011 166.142 38.2681 163.774C41.2887 161.405 42.7989 158.223 42.7989 154.229C42.7989 147.587 39.0813 143.802 31.6461 142.873V132.075Z" fill="white"/>
<path d="M1.18502 92.0784L1.18502 67.416C1.18502 62.4928 2.34677 58.4753 4.67027 55.3635C6.99377 52.2517 10.5255 50.6958 15.2654 50.6958C18.1466 50.6958 20.6792 51.3924 22.8633 52.7858C25.0009 54.1792 26.5344 56.1066 27.4638 58.5682C28.3468 54.2953 32.2038 51.8569 39.0349 51.2531C39.2672 51.2531 39.9875 51.2067 41.1957 51.1138C42.404 51.0209 43.3798 50.928 44.1234 50.8351C44.8204 50.7422 45.6801 50.6261 46.7024 50.4868C47.7248 50.3474 48.5845 50.1384 49.2815 49.8598C49.9786 49.5811 50.4897 49.256 50.815 48.8844L50.815 60.1706C50.0715 60.5421 49.1421 60.8208 48.0268 61.0066C46.8651 61.1924 45.4013 61.3549 43.6354 61.4943C41.8231 61.6336 40.824 61.7033 40.6381 61.7033C37.1528 62.0748 34.7364 62.9573 33.3888 64.3506C32.0411 65.6976 31.3673 68.1127 31.3673 71.5961V81.2799H50.815V92.0784H1.18502ZM9.75874 81.2799H23.4906V70.9691C23.4906 67.9501 23.0259 65.6047 22.0965 63.9326C21.1207 62.2142 19.2386 61.3549 16.4504 61.3549C13.8481 61.3549 12.0822 62.191 11.1528 63.863C10.2234 65.4886 9.75874 67.6947 9.75874 70.4814V81.2799Z" fill="white"/>
<path d="M1.18501 1.30338e-06L31.0188 0C38.1287 -3.10618e-07 43.3798 1.71847 46.7721 5.15541C50.118 8.5459 51.7909 13.8639 51.7909 21.1093C51.7909 28.4476 50.0948 33.8585 46.7024 37.3419C43.2637 40.7788 37.9893 42.4973 30.8794 42.4973H1.18501L1.18501 31.6291H30.8794C34.9223 31.6291 37.9196 30.8628 39.8713 29.3301C41.8231 27.7974 42.799 25.0107 42.799 20.97C42.799 17.0686 41.8231 14.4212 39.8713 13.0279C37.9196 11.5881 34.9223 10.8682 30.8794 10.8682L1.18501 10.8682L1.18501 1.30338e-06Z" fill="white"/>
<path d="M45.1749 109.601C48.5994 109.601 51.3754 112.376 51.3754 115.798C51.3754 119.221 48.5994 121.995 45.1749 121.995C41.7505 121.995 38.9745 119.221 38.9745 115.798C38.9745 112.376 41.7505 109.601 45.1749 109.601Z" fill="white"/>
</g>
</svg>
