<svg width="25" height="25" viewBox="0 0 25 25" fill="none" xmlns="http://www.w3.org/2000/svg">
<path d="M9.66667 0C4.3437 0 0 4.34371 0 9.66667C0 14.9896 4.3437 19.3333 9.66667 19.3333C11.8488 19.3333 13.8593 18.5953 15.4805 17.3672L21.724 23.6094C21.8468 23.7373 21.994 23.8395 22.1568 23.9099C22.3197 23.9803 22.4949 24.0175 22.6723 24.0193C22.8497 24.0211 23.0256 23.9875 23.1899 23.9204C23.3541 23.8533 23.5033 23.7542 23.6288 23.6288C23.7542 23.5033 23.8533 23.3541 23.9204 23.1899C23.9875 23.0256 24.0211 22.8497 24.0193 22.6723C24.0175 22.4949 23.9803 22.3197 23.9099 22.1568C23.8395 21.994 23.7373 21.8468 23.6094 21.724L17.3672 15.4805C18.5953 13.8593 19.3333 11.8488 19.3333 9.66667C19.3333 4.34371 14.9896 0 9.66667 0ZM9.66667 2.66667C13.5485 2.66667 16.6667 5.78488 16.6667 9.66667C16.6667 11.5305 15.9427 13.2137 14.7656 14.4648C14.651 14.5478 14.5504 14.6484 14.4674 14.763C13.2161 15.9416 11.5318 16.6667 9.66667 16.6667C5.78488 16.6667 2.66667 13.5485 2.66667 9.66667C2.66667 5.78488 5.78488 2.66667 9.66667 2.66667Z" fill="white"/>
</svg>
