<svg width="50" height="50" viewBox="0 0 50 50" fill="none" xmlns="http://www.w3.org/2000/svg">
<circle cx="25" cy="25" r="25" fill="white"/>
<circle cx="25" cy="25" r="24.5" stroke="#304F6E" stroke-opacity="0.15"/>
<path d="M29.8054 19.4928C29.6686 19.4929 29.5349 19.5337 29.4214 19.6102C29.308 19.6866 29.2199 19.7952 29.1685 19.922C29.117 20.0488 29.1046 20.188 29.1328 20.3219C29.1609 20.4558 29.2284 20.5783 29.3265 20.6736L32.7363 24.0833H15.6043C15.5132 24.082 15.4227 24.0989 15.3382 24.1329C15.2536 24.1668 15.1767 24.2173 15.1118 24.2812C15.0469 24.3452 14.9954 24.4214 14.9603 24.5055C14.9251 24.5895 14.907 24.6797 14.907 24.7708C14.907 24.8619 14.9251 24.9522 14.9603 25.0362C14.9954 25.1203 15.0469 25.1965 15.1118 25.2604C15.1767 25.3244 15.2536 25.3749 15.3382 25.4088C15.4227 25.4428 15.5132 25.4596 15.6043 25.4583H32.7363L29.3265 28.8681C29.2605 28.9314 29.2079 29.0073 29.1716 29.0913C29.1353 29.1752 29.1161 29.2656 29.1152 29.3571C29.1143 29.4485 29.1316 29.5393 29.1662 29.6239C29.2007 29.7086 29.2519 29.7856 29.3165 29.8502C29.3812 29.9149 29.4581 29.966 29.5428 30.0006C29.6275 30.0352 29.7182 30.0525 29.8097 30.0516C29.9012 30.0507 29.9915 30.0315 30.0755 29.9952C30.1595 29.9589 30.2353 29.9062 30.2987 29.8403L34.882 25.2569C35.0109 25.128 35.0833 24.9531 35.0833 24.7708C35.0833 24.5885 35.0109 24.4137 34.882 24.2848L30.2987 19.7014C30.2346 19.6354 30.1579 19.583 30.0732 19.5471C29.9885 19.5113 29.8974 19.4928 29.8054 19.4928Z" fill="#343C4B"/>
</svg>
