<svg width="50" height="50" viewBox="0 0 50 50" fill="none" xmlns="http://www.w3.org/2000/svg">
<circle r="25" transform="matrix(-1 0 0 1 25 25)" fill="white"/>
<circle r="24.5" transform="matrix(-1 0 0 1 25 25)" stroke="#304F6E" stroke-opacity="0.15"/>
<path d="M20.1946 19.4928C20.3314 19.4929 20.4651 19.5337 20.5786 19.6102C20.692 19.6866 20.7801 19.7952 20.8315 19.922C20.883 20.0488 20.8954 20.188 20.8672 20.3219C20.8391 20.4558 20.7716 20.5783 20.6735 20.6736L17.2637 24.0833H34.3957C34.4868 24.082 34.5773 24.0989 34.6618 24.1329C34.7464 24.1668 34.8233 24.2173 34.8882 24.2812C34.9531 24.3452 35.0046 24.4214 35.0397 24.5055C35.0749 24.5895 35.093 24.6797 35.093 24.7708C35.093 24.8619 35.0749 24.9522 35.0397 25.0362C35.0046 25.1203 34.9531 25.1965 34.8882 25.2604C34.8233 25.3244 34.7464 25.3749 34.6618 25.4088C34.5773 25.4428 34.4868 25.4596 34.3957 25.4583H17.2637L20.6735 28.8681C20.7395 28.9314 20.7921 29.0073 20.8284 29.0913C20.8647 29.1752 20.8839 29.2656 20.8848 29.3571C20.8857 29.4485 20.8684 29.5393 20.8338 29.6239C20.7993 29.7086 20.7481 29.7856 20.6835 29.8502C20.6188 29.9149 20.5419 29.966 20.4572 30.0006C20.3725 30.0352 20.2818 30.0525 20.1903 30.0516C20.0988 30.0507 20.0085 30.0315 19.9245 29.9952C19.8405 29.9589 19.7647 29.9062 19.7013 29.8403L15.118 25.2569C14.9891 25.128 14.9167 24.9531 14.9167 24.7708C14.9167 24.5885 14.9891 24.4137 15.118 24.2848L19.7013 19.7014C19.7654 19.6354 19.8421 19.583 19.9268 19.5471C20.0115 19.5113 20.1026 19.4928 20.1946 19.4928Z" fill="#343C4B"/>
</svg>
