<svg width="22" height="22" viewBox="0 0 22 22" fill="none" xmlns="http://www.w3.org/2000/svg">
<path d="M11.0007 1.83334C5.94618 1.83334 1.83398 5.94554 1.83398 11C1.83398 16.0545 5.94618 20.1667 11.0007 20.1667C16.0551 20.1667 20.1673 16.0545 20.1673 11C20.1673 5.94554 16.0551 1.83334 11.0007 1.83334ZM11.0007 3.20834C15.312 3.20834 18.7923 6.68864 18.7923 11C18.7923 15.3114 15.312 18.7917 11.0007 18.7917C6.68929 18.7917 3.20898 15.3114 3.20898 11C3.20898 6.68864 6.68929 3.20834 11.0007 3.20834ZM10.7607 5.49016C10.5786 5.493 10.405 5.56804 10.2781 5.69879C10.1512 5.82955 10.0814 6.00532 10.084 6.1875V11.6875C10.084 11.8698 10.1564 12.0447 10.2854 12.1736C10.4143 12.3025 10.5892 12.375 10.7715 12.375H14.4382C14.5293 12.3763 14.6197 12.3595 14.7042 12.3255C14.7888 12.2915 14.8657 12.2411 14.9306 12.1771C14.9955 12.1131 15.047 12.0369 15.0822 11.9529C15.1173 11.8688 15.1354 11.7786 15.1354 11.6875C15.1354 11.5964 15.1173 11.5062 15.0822 11.4221C15.047 11.3381 14.9955 11.2619 14.9306 11.1979C14.8657 11.1339 14.7888 11.0835 14.7042 11.0495C14.6197 11.0155 14.5293 10.9987 14.4382 11H11.459V6.1875C11.4603 6.09549 11.4431 6.00414 11.4085 5.91888C11.3739 5.83362 11.3225 5.75618 11.2574 5.69114C11.1922 5.62611 11.1147 5.57482 11.0294 5.54029C10.9441 5.50577 10.8528 5.48872 10.7607 5.49016Z" fill="#304F6F"/>
</svg>
