<svg width="22" height="22" viewBox="0 0 22 22" fill="none" xmlns="http://www.w3.org/2000/svg">
<path d="M11.0007 1.83243C5.94628 1.83243 1.83398 5.94473 1.83398 10.9991C1.83398 12.5003 2.22939 13.9035 2.87061 15.1545L1.87695 18.712C1.64552 19.5385 2.46278 20.3558 3.28955 20.1246L6.84969 19.1309C8.09974 19.7708 9.50087 20.1658 11.0007 20.1658C16.055 20.1658 20.1673 16.0535 20.1673 10.9991C20.1673 5.94473 16.055 1.83243 11.0007 1.83243ZM11.0007 3.20743C15.3119 3.20743 18.7923 6.68788 18.7923 10.9991C18.7923 15.3103 15.3119 18.7908 11.0007 18.7908C9.62493 18.7908 8.33801 18.433 7.21582 17.8079C7.05764 17.7197 6.87106 17.6975 6.69661 17.7461L3.31104 18.6905L4.25635 15.3067C4.30518 15.132 4.28298 14.945 4.19458 14.7866C3.56816 13.6636 3.20898 12.3762 3.20898 10.9991C3.20898 6.68788 6.68943 3.20743 11.0007 3.20743ZM7.90243 6.87499C7.75622 6.87499 7.51997 6.92983 7.31877 7.14892C7.11802 7.36708 6.55249 7.89621 6.55249 8.9733C6.55249 10.0504 7.33634 11.0905 7.44588 11.2372C7.55497 11.3825 8.95985 13.6641 11.1851 14.5413C13.034 15.2701 13.41 15.125 13.8115 15.0883C14.213 15.0525 15.1071 14.5596 15.2895 14.0481C15.4719 13.5366 15.472 13.0991 15.4184 13.0088C15.3638 12.9176 15.2176 12.8623 14.9985 12.7528C14.7799 12.6432 13.7043 12.114 13.5036 12.0411C13.3028 11.9682 13.1561 11.9312 13.0103 12.1503C12.8646 12.3694 12.4453 12.8621 12.3175 13.0079C12.1896 13.1546 12.0621 13.1729 11.843 13.0634C11.6235 12.9529 10.9191 12.7223 10.0822 11.9766C9.43136 11.3968 8.99352 10.6802 8.86564 10.4611C8.73822 10.2429 8.85188 10.123 8.96143 10.0144C9.05997 9.91631 9.18042 9.75913 9.28996 9.63126C9.39858 9.50338 9.43461 9.41267 9.50749 9.26692C9.58036 9.12163 9.54413 8.99332 9.48958 8.88378C9.43504 8.77424 9.00941 7.69125 8.81462 7.25813C8.65099 6.89421 8.47856 6.88632 8.32227 6.88036C8.19485 6.87532 8.04818 6.87499 7.90243 6.87499Z" fill="#304F6F"/>
</svg>
