<svg width="22" height="22" viewBox="0 0 22 22" fill="none" xmlns="http://www.w3.org/2000/svg">
<path d="M10.9345 3.8959C8.02283 3.8959 5.31758 4.10336 3.77393 4.42585C3.77064 4.42672 3.76735 4.42762 3.76408 4.42854C2.6011 4.68914 1.50601 5.52218 1.27547 6.82673C1.27517 6.82852 1.27487 6.83031 1.27458 6.8321C1.09747 7.88353 0.916504 9.25414 0.916504 11.2292C0.916504 13.2006 1.09809 14.5349 1.32202 15.6416C1.55821 16.9077 2.62802 17.7659 3.80884 18.0299C3.81449 18.0315 3.82016 18.033 3.82585 18.0344C5.43691 18.3519 8.0658 18.5626 10.9775 18.5626C13.8891 18.5626 16.5194 18.3519 18.1309 18.0344C18.1365 18.033 18.1422 18.0315 18.1479 18.0299C19.3109 17.7693 20.4059 16.9363 20.6365 15.6317C20.6371 15.6285 20.6377 15.6252 20.6383 15.6219C20.8127 14.549 21.0386 13.1797 21.0832 11.2015C21.0832 11.1964 21.0832 11.1913 21.0832 11.1863C21.0832 9.20693 20.8566 7.8278 20.6356 6.73542C20.4013 5.46665 19.3302 4.60608 18.1479 4.34171C18.1298 4.33769 18.1116 4.3344 18.0933 4.33186C16.5211 4.11084 13.8466 3.8959 10.9345 3.8959ZM9.23812 7.79263C9.40789 7.78912 9.58337 7.82928 9.74837 7.92243L13.6917 10.1505C14.3567 10.5264 14.3567 11.4747 13.6917 11.8505L9.74837 14.0786C9.08883 14.4508 8.26685 13.9794 8.26685 13.2282V8.77196C8.26685 8.20856 8.72881 7.80316 9.23812 7.79263Z" fill="white"/>
</svg>
