<svg width="71" height="49" viewBox="0 0 71 49" fill="none" xmlns="http://www.w3.org/2000/svg">
<g clip-path="url(#clip0_73_1633)">
<path d="M28.2197 33.5049L47.3564 23.7864L28.2197 14V33.5049Z" fill="white"/>
<path opacity="0.12" d="M28.2197 14L44.999 24.9825L47.3564 23.7864L28.2197 14Z" fill="#420000"/>
<path d="M70.2375 10.6224C70.2375 10.6224 69.5441 5.83789 67.4225 3.7311C64.7322 0.965078 61.7092 0.951486 60.3294 0.788379C50.4144 0.0883789 35.5487 0.0883789 35.5487 0.0883789H35.521C35.521 0.0883789 20.6554 0.0883789 10.7403 0.788379C9.36055 0.951486 6.3375 0.965078 3.64727 3.7311C1.52559 5.83789 0.832227 10.6224 0.832227 10.6224C0.832227 10.6224 0.125 16.236 0.125 21.8563V27.1233C0.125 32.7437 0.832227 38.3573 0.832227 38.3573C0.832227 38.3573 1.52559 43.1418 3.64727 45.2486C6.34443 48.0146 9.88057 47.9262 11.4545 48.2185C17.1192 48.7486 35.5349 48.9185 35.5349 48.9185C35.5349 48.9185 50.4144 48.8981 60.3294 48.1913C61.7161 48.0282 64.7322 48.0146 67.4225 45.2486C69.5441 43.1418 70.2375 38.3573 70.2375 38.3573C70.2375 38.3573 70.9447 32.7369 70.9447 27.1233V21.8563C70.9447 16.236 70.2375 10.6224 70.2375 10.6224ZM28.2199 33.5049V14L47.3566 23.7864L28.2199 33.5049Z" fill="url(#paint0_linear_73_1633)"/>
</g>
<defs>
<linearGradient id="paint0_linear_73_1633" x1="35.5349" y1="0.0883789" x2="35.5349" y2="48.9185" gradientUnits="userSpaceOnUse">
<stop stop-color="#E52D27"/>
<stop offset="1" stop-color="#BF171D"/>
</linearGradient>
<clipPath id="clip0_73_1633">
<rect width="71" height="49" fill="white"/>
</clipPath>
</defs>
</svg>
