<svg width="26" height="26" viewBox="0 0 26 26" fill="none" xmlns="http://www.w3.org/2000/svg">
<path d="M12.924 4.71181C9.52705 4.71181 6.37092 4.95383 4.56999 5.33008C4.56615 5.33109 4.56232 5.33214 4.5585 5.33321C3.20169 5.63725 1.92408 6.60912 1.65512 8.1311C1.65477 8.13319 1.65442 8.13528 1.65408 8.13737C1.44746 9.36403 1.23633 10.9631 1.23633 13.2674C1.23633 15.5673 1.44818 17.1239 1.70943 18.4151C1.98498 19.8922 3.2331 20.8935 4.61072 21.2015C4.61731 21.2033 4.62392 21.2051 4.63056 21.2067C6.51014 21.5771 9.57718 21.8229 12.9741 21.8229C16.371 21.8229 19.4397 21.5771 21.3197 21.2067C21.3264 21.2051 21.333 21.2033 21.3396 21.2015C22.6964 20.8975 23.974 19.9256 24.243 18.4036C24.2437 18.3998 24.2444 18.396 24.2451 18.3921C24.4485 17.1404 24.7121 15.5429 24.7641 13.235C24.7642 13.2291 24.7642 13.2231 24.7641 13.2172C24.7641 10.908 24.4998 9.29901 24.2419 8.02458C23.9685 6.54434 22.719 5.54035 21.3396 5.23191C21.3185 5.22722 21.2973 5.22339 21.2759 5.22042C19.4417 4.96256 16.3214 4.71181 12.924 4.71181ZM10.9449 9.25799C11.1429 9.25389 11.3477 9.30074 11.5402 9.40942L16.1407 12.0089C16.9165 12.4474 16.9165 13.5537 16.1407 13.9922L11.5402 16.5916C10.7707 17.0258 9.81173 16.4759 9.81173 15.5995V10.4005C9.81173 9.74323 10.3507 9.27027 10.9449 9.25799Z" fill="#304F6F"/>
</svg>
