<svg width="68" height="68" viewBox="0 0 68 68" fill="none" xmlns="http://www.w3.org/2000/svg">
<path d="M29.0417 8.5C17.722 8.5 8.5 17.722 8.5 29.0417C8.5 40.3613 17.722 49.5833 29.0417 49.5833C33.9382 49.5833 38.4394 47.8536 41.9743 44.9792L55.8726 58.8774C56.0684 59.0814 56.3029 59.2442 56.5624 59.3564C56.8219 59.4685 57.1012 59.5278 57.384 59.5307C57.6667 59.5335 57.9471 59.48 58.2088 59.3731C58.4706 59.2662 58.7084 59.1082 58.9083 58.9083C59.1082 58.7084 59.2662 58.4706 59.3731 58.2088C59.48 57.9471 59.5335 57.6667 59.5307 57.384C59.5278 57.1012 59.4685 56.8219 59.3564 56.5624C59.2442 56.3029 59.0814 56.0684 58.8774 55.8726L44.9792 41.9743C47.8536 38.4394 49.5833 33.9382 49.5833 29.0417C49.5833 17.722 40.3614 8.5 29.0417 8.5ZM29.0417 12.75C38.0645 12.75 45.3333 20.0189 45.3333 29.0417C45.3333 33.437 43.5996 37.4081 40.7873 40.3335C40.6139 40.4609 40.4609 40.6139 40.3335 40.7873C37.4081 43.5996 33.437 45.3333 29.0417 45.3333C20.0189 45.3333 12.75 38.0645 12.75 29.0417C12.75 20.0189 20.0189 12.75 29.0417 12.75ZM29.0085 19.8029C28.4454 19.8117 27.9088 20.0436 27.5166 20.4478C27.1244 20.8519 26.9086 21.3952 26.9167 21.9583V26.9167H21.9583C21.6767 26.9127 21.3972 26.9647 21.1359 27.0697C20.8746 27.1747 20.6367 27.3306 20.4362 27.5283C20.2357 27.726 20.0764 27.9617 19.9677 28.2214C19.859 28.4812 19.8031 28.7601 19.8031 29.0417C19.8031 29.3233 19.859 29.6021 19.9677 29.8619C20.0764 30.1217 20.2357 30.3573 20.4362 30.555C20.6367 30.7527 20.8746 30.9086 21.1359 31.0136C21.3972 31.1186 21.6767 31.1707 21.9583 31.1667H26.9167V36.125C26.9127 36.4066 26.9647 36.6862 27.0697 36.9475C27.1747 37.2088 27.3306 37.4466 27.5283 37.6471C27.726 37.8477 27.9617 38.0069 28.2214 38.1156C28.4812 38.2243 28.7601 38.2803 29.0417 38.2803C29.3233 38.2803 29.6021 38.2243 29.8619 38.1156C30.1217 38.0069 30.3573 37.8477 30.555 37.6471C30.7527 37.4466 30.9086 37.2088 31.0136 36.9475C31.1186 36.6862 31.1707 36.4066 31.1667 36.125V31.1667H36.125C36.4066 31.1707 36.6862 31.1186 36.9475 31.0136C37.2088 30.9086 37.4466 30.7527 37.6471 30.555C37.8477 30.3573 38.0069 30.1217 38.1156 29.8619C38.2243 29.6021 38.2803 29.3233 38.2803 29.0417C38.2803 28.7601 38.2243 28.4812 38.1156 28.2214C38.0069 27.9617 37.8477 27.726 37.6471 27.5283C37.4466 27.3306 37.2088 27.1747 36.9475 27.0697C36.6862 26.9647 36.4066 26.9127 36.125 26.9167H31.1667V21.9583C31.1707 21.6739 31.1177 21.3916 31.0106 21.128C30.9036 20.8645 30.7447 20.6251 30.5435 20.4241C30.3422 20.2231 30.1026 20.0646 29.839 19.9579C29.5753 19.8511 29.2929 19.7985 29.0085 19.8029Z" fill="white"/>
</svg>
